<svg xmlns="http://www.w3.org/2000/svg" xmlns:xlink="http://www.w3.org/1999/xlink" width="319" height="332" viewBox="0 0 319 332">
  <defs>
    <clipPath id="clip-BearWon">
      <rect width="319" height="332"/>
    </clipPath>
  </defs>
  <g id="BearWon" clip-path="url(#clip-BearWon)">
    <g id="Grupo_158" data-name="Grupo 158" transform="translate(18.28 -15.386)">
      <path id="Elipse_45" data-name="Elipse 45" d="M127.7,20.743a106.681,106.681,0,0,1,43.1,17.49,130.891,130.891,0,0,1,32.883,32.793,154.977,154.977,0,0,1,21.1,43.058,166.962,166.962,0,0,1,7.531,49.759,160.738,160.738,0,0,1-7.531,49.117,140.015,140.015,0,0,1-21.1,41.261A115.38,115.38,0,0,1,170.8,284.212a98.271,98.271,0,0,1-89.665,6.081,119.543,119.543,0,0,1-40.9-29.185,148.015,148.015,0,0,1-29.183-47.283A166.026,166.026,0,0,1,0,153.946,158.6,158.6,0,0,1,11.047,95.009a132.035,132.035,0,0,1,29.183-44.8,106.434,106.434,0,0,1,40.9-25.7A96.389,96.389,0,0,1,127.7,20.743Z" transform="translate(22.243 0.244)" fill="#9f8200"/>
      <path id="Elipse_43" data-name="Elipse 43" d="M124.359,20.508a103.428,103.428,0,0,1,42.048,17.3,128.723,128.723,0,0,1,32.108,32.429,154.141,154.141,0,0,1,20.611,42.585,166.934,166.934,0,0,1,7.36,49.2,160.424,160.424,0,0,1-7.36,48.54,138.538,138.538,0,0,1-20.611,40.727,112.637,112.637,0,0,1-32.108,29.535,94.924,94.924,0,0,1-42.048,13.507,95.927,95.927,0,0,1-45.389-7.793,116.972,116.972,0,0,1-39.83-28.927,146.887,146.887,0,0,1-28.4-46.72A165.962,165.962,0,0,1,0,151.815,158.216,158.216,0,0,1,10.744,93.707a130.255,130.255,0,0,1,28.4-44.161A103.376,103.376,0,0,1,78.97,24.209,92.8,92.8,0,0,1,124.359,20.508Z" transform="translate(40.032)" fill="#F6D180"/>
      <path id="Elipse_41" data-name="Elipse 41" d="M104.543,15.411a87.45,87.45,0,0,1,36.1,14.22A108.978,108.978,0,0,1,168.48,57.166a131.13,131.13,0,0,1,17.988,36.613,142.5,142.5,0,0,1,6.447,42.54,136.874,136.874,0,0,1-6.447,41.958,117.743,117.743,0,0,1-17.988,34.992,95.375,95.375,0,0,1-27.833,25.026,80.518,80.518,0,0,1-36.1,10.966A81.963,81.963,0,0,1,66,241.969a100.367,100.367,0,0,1-33.455-24.99A125.815,125.815,0,0,1,8.9,177.347,141.785,141.785,0,0,1,0,127.624,135.261,135.261,0,0,1,8.9,78.7,111.676,111.676,0,0,1,32.549,41.2,88.579,88.579,0,0,1,66,19.228,78.946,78.946,0,0,1,104.543,15.411Z" transform="translate(59.847 25.084)" fill="#515491"/>
      <g id="Capa_2" data-name="Capa 2" transform="translate(93.996 83.165)">
        <path id="Trazado_1041" data-name="Trazado 1041" d="M132.641,39.652q-.137-.7-.276-1.406t-.283-1.407q-.144-.7-.3-1.4t-.317-1.386c-.31-1.223-.624-2.446-.956-3.66s-.683-2.423-1.064-3.615-.8-2.372-1.255-3.528-.964-2.293-1.528-3.4a18.9,18.9,0,0,0-2.9-4.266,11.31,11.31,0,0,0-3.434-2.592,8.819,8.819,0,0,0-3.867-.861,10.808,10.808,0,0,0-4.2.934A17.547,17.547,0,0,0,110,14.292a18.855,18.855,0,0,0-2.12,1.576,20.53,20.53,0,0,0-1.944,1.907A22.508,22.508,0,0,0,104.188,20a5.715,5.715,0,0,1-1.171,1.317,4.809,4.809,0,0,1-1.419.807,4.487,4.487,0,0,1-1.575.262,4.81,4.81,0,0,1-1.639-.318,7.418,7.418,0,0,1-.692-.31q-.341-.174-.671-.385t-.645-.458q-.316-.247-.616-.528a39.8,39.8,0,0,0-4.6-3.59,29.987,29.987,0,0,0-4.836-2.626,24.642,24.642,0,0,0-5.1-1.555,23.289,23.289,0,0,0-5.382-.374q-1.283.082-2.577.062t-2.6-.142q-1.3-.122-2.61-.346t-2.615-.552q-.812-.2-1.629-.349t-1.638-.258q-.821-.106-1.645-.166t-1.649-.074a20.831,20.831,0,0,0-4.019.263,22.977,22.977,0,0,0-3.853.984A28.308,28.308,0,0,0,47.3,13.268a37.752,37.752,0,0,0-3.584,2.126,8.375,8.375,0,0,1-2.676,1.23,5.087,5.087,0,0,1-2.5-.009A6.181,6.181,0,0,1,36.2,15.359a12.542,12.542,0,0,1-2.245-2.507q-.279-.4-.568-.8T32.8,11.28q-.3-.384-.606-.758t-.624-.739A34.862,34.862,0,0,0,28.78,6.934a23.838,23.838,0,0,0-3.017-2.339,18.071,18.071,0,0,0-3.311-1.7,16.043,16.043,0,0,0-3.669-.943c-.145,0-.3,0-.455-.005s-.319-.007-.485-.008-.335,0-.506.005-.344.017-.516.035a10.681,10.681,0,0,0-3.266.846,10.962,10.962,0,0,0-2.737,1.741,14.672,14.672,0,0,0-2.275,2.5A22.546,22.546,0,0,0,6.66,10.186q-1.052,2.1-1.969,4.295t-1.7,4.475q-.78,2.281-1.419,4.637T.441,28.373Q.3,28.933.2,29.508T.052,30.67Q0,31.256,0,31.85t.045,1.191A19.656,19.656,0,0,0,1.053,37.2a20.4,20.4,0,0,0,1.754,3.645,24.836,24.836,0,0,0,2.339,3.215,34.446,34.446,0,0,0,2.764,2.867,11.6,11.6,0,0,1,2.018,2.413,8.672,8.672,0,0,1,1.279,5.53,11.561,11.561,0,0,1-.771,3.087q-.385.939-.748,1.891t-.7,1.918q-.341.966-.66,1.944t-.614,1.968A64.051,64.051,0,0,0,5.635,75.768,49.345,49.345,0,0,0,5.428,85.7a43.122,43.122,0,0,0,1.938,9.714,44.655,44.655,0,0,0,4.337,9.428c2.206,3.651,4.48,7.2,6.849,10.61s4.812,6.654,7.385,9.738A103.1,103.1,0,0,0,34,133.845a81.591,81.591,0,0,0,8.877,7.361q3.358,2.4,6.748,4.673,3.373,2.268,6.754,4.448,3.364,2.179,6.713,4.317,3.332,2.137,6.628,4.277a1.279,1.279,0,0,0,.309.092,1.247,1.247,0,0,0,.316.011,1.292,1.292,0,0,0,.312-.069,1.412,1.412,0,0,0,.3-.148q2.144-1.491,4.279-2.994t4.256-2.987q2.121-1.485,4.242-2.949T87.973,147a100.461,100.461,0,0,0,11.214-8.754,104.5,104.5,0,0,0,9.826-10.157,115.455,115.455,0,0,0,8.545-11.509,133.738,133.738,0,0,0,7.358-12.818,35.223,35.223,0,0,0,1.639-3.956,37.7,37.7,0,0,0,1.179-4.19,39.637,39.637,0,0,0,.708-4.366,40.887,40.887,0,0,0,.225-4.483,51.637,51.637,0,0,0-.249-5.849c-.19-1.923-.481-3.821-.857-5.7s-.838-3.738-1.368-5.581-1.13-3.675-1.782-5.493a9.177,9.177,0,0,1-.455-5.3,7.746,7.746,0,0,1,.9-2.335,5.872,5.872,0,0,1,1.571-1.755,17.554,17.554,0,0,0,1.593-1.53,19.1,19.1,0,0,0,1.428-1.753A20.82,20.82,0,0,0,130.7,49.51a22.6,22.6,0,0,0,1.062-2.146,10.86,10.86,0,0,0,.672-1.78,12.1,12.1,0,0,0,.375-1.917,12.956,12.956,0,0,0,.071-2,13.256,13.256,0,0,0-.239-2.019ZM83.919,120.192a27.866,27.866,0,0,1-1.821,2.359,26.143,26.143,0,0,1-2.021,2.1,24.545,24.545,0,0,1-2.2,1.819,23.138,23.138,0,0,1-2.37,1.522,10.058,10.058,0,0,1-2.537,1.113,9.4,9.4,0,0,1-5.313-.066,10.292,10.292,0,0,1-2.548-1.187,32.231,32.231,0,0,1-5.766-4.583,32.957,32.957,0,0,1-4.582-5.777,38.515,38.515,0,0,1-3.4-6.92,49.415,49.415,0,0,1-2.234-8.008q-.419-2.215-.614-4.464c-.13-1.5-.186-3-.168-4.5s.112-2.993.279-4.476a43.806,43.806,0,0,1,.724-4.4,24.788,24.788,0,0,1,1.906-5.8,16.74,16.74,0,0,1,2.975-4.346A14.571,14.571,0,0,1,58.2,71.641a17.349,17.349,0,0,1,4.9-1.577c.6-.1,1.2-.178,1.8-.238s1.207-.1,1.812-.141,1.209-.067,1.813-.1,1.205-.066,1.805-.112q1.246.081,2.483.262t2.456.462q1.219.28,2.422.658t2.38.852a16.98,16.98,0,0,1,3.634,2.132,16.019,16.019,0,0,1,2.922,2.932A17.923,17.923,0,0,1,88.82,80.5a23.022,23.022,0,0,1,1.426,4.512,56.293,56.293,0,0,1,1.149,9.558,45.125,45.125,0,0,1-.611,9.054,40.387,40.387,0,0,1-2.457,8.544A41.749,41.749,0,0,1,83.919,120.192Z" fill="#ED6761"/>
        <path id="Trazado_1042" data-name="Trazado 1042" d="M22.892,33.467a12.515,12.515,0,0,1-2.546-.915,8.5,8.5,0,0,1-2.146-1.5A8.057,8.057,0,0,1,16.578,28.8a11.31,11.31,0,0,1-.976-3.161q-.122-.858-.22-1.72t-.173-1.728q-.074-.865-.125-1.733t-.077-1.737a2.721,2.721,0,0,1,.089-.486,2.512,2.512,0,0,1,.171-.444,2.244,2.244,0,0,1,.245-.387,1.969,1.969,0,0,1,.311-.316c.648-.539,1.3-1.078,1.93-1.634s1.252-1.13,1.84-1.743a18.252,18.252,0,0,0,1.654-1.971,14.882,14.882,0,0,0,1.373-2.317A7.9,7.9,0,0,0,23.388,6.6a6.02,6.02,0,0,0-.344-2.552A4.509,4.509,0,0,0,19.388,1.1C18.444.956,17.495.849,16.541.768S14.628.632,13.666.59s-1.929-.07-2.9-.1S8.832.442,7.861.4q-.32.013-.636.058T6.6.582q-.312.075-.617.18t-.6.24a3.067,3.067,0,0,0-1.113.609,3.728,3.728,0,0,0-.831,1.02,4.5,4.5,0,0,0-.483,1.316,5,5,0,0,0-.069,1.5A9.8,9.8,0,0,0,3,6.554a9.657,9.657,0,0,0,.245,1.078,9.349,9.349,0,0,0,.363,1.031,8.9,8.9,0,0,0,.478.969q.439.767.934,1.478t1.041,1.36q.545.649,1.139,1.234t1.229,1.1a7.338,7.338,0,0,1,1.713,1.591,5.857,5.857,0,0,1,.95,1.852,7.59,7.59,0,0,1,.311,2.129,13.736,13.736,0,0,1-.206,2.422,1.6,1.6,0,0,0-.018.19c0,.064,0,.129,0,.194s0,.13-.007.194a1.27,1.27,0,0,1-.027.19,12.8,12.8,0,0,1-.688,3.193,11.375,11.375,0,0,1-1.406,2.735A9.683,9.683,0,0,1,7.035,31.6,8.275,8.275,0,0,1,4.53,32.928c-.36.111-.723.205-1.091.29s-.74.16-1.116.231-.758.138-1.143.206-.777.139-1.172.217a3.326,3.326,0,0,0,.106,1.136,1.65,1.65,0,0,0,.413.714,1.7,1.7,0,0,0,.639.389,3.246,3.246,0,0,0,.782.16,9.846,9.846,0,0,0,3.773-.389A10.347,10.347,0,0,0,7.5,35.152,11.088,11.088,0,0,0,9.166,34.08a7.724,7.724,0,0,1,2-1.087,5.655,5.655,0,0,1,2-.33,6.105,6.105,0,0,1,2.008.394,9.178,9.178,0,0,1,2.032,1.084q.57.37,1.155.7t1.183.606q.6.28,1.208.514t1.23.421a5.485,5.485,0,0,0,.74.15,5.341,5.341,0,0,0,1.487-.012,5.421,5.421,0,0,0,.733-.162.7.7,0,0,0,.323-.209,2.376,2.376,0,0,0,.292-.392c.093-.15.183-.314.271-.476s.174-.32.26-.46q-.133-.15-.275-.289t-.29-.264q-.149-.126-.3-.239t-.317-.213q-.249-.061-.5-.113t-.5-.1q-.251-.043-.5-.078t-.505-.06Z" transform="translate(57.136 75.836)" fill="#ED6761"/>
      </g>
      <path id="Rectángulo_115" data-name="Rectángulo 115" d="M37.457,7.832,269.53.727A18.36,18.36,0,0,1,278.9,2.984a23.577,23.577,0,0,1,7.529,6.638,32.824,32.824,0,0,1,5.014,9.964,41.377,41.377,0,0,1,1.826,12.333v9.753a43.833,43.833,0,0,1-1.826,12.578,38.4,38.4,0,0,1-5.014,10.635A28.727,28.727,0,0,1,278.9,72.53a20.5,20.5,0,0,1-9.372,3.511L37.457,99.995a32.361,32.361,0,0,1-14.322-1.7A32.88,32.88,0,0,1,11.2,90.755,36.581,36.581,0,0,1,3.024,78.472,41.564,41.564,0,0,1,0,62.707V50.132a44.71,44.71,0,0,1,3.023-16.17A43.789,43.789,0,0,1,11.2,20.586a39.583,39.583,0,0,1,11.937-9.139A34.737,34.737,0,0,1,37.457,7.832Z" transform="translate(-0.007 239.947)" fill="#F6D180"/>
      <path id="Bear_Won_" data-name="Bear Won!" d="M4.182,83.1V27.182l20.512-.915q3.882-.173,6.672.657t4.5,2.667q3.4,3.65,3.4,10.468,0,3.152-.789,5.619T36.2,49.821Q34.707,51.5,32.518,52.23q1.593.337,3.116,1.229t2.672,2.5q1.151,1.607,1.808,3.831t.656,5.151q0,5.418-1.675,8.852T34.044,79a16.514,16.514,0,0,1-1.793.8,20.012,20.012,0,0,1-2,.636q-1.051.277-2.2.471t-2.414.305ZM16.091,70.479l9.208-.728q1.477-.117,2.516-.865t1.571-2.081q.534-1.334.534-3.328,0-1.772-.567-2.987t-1.572-1.847q-1.005-.633-2.482-.53l-9.208.643Zm0-21.5,8.6-.535q1.747-.109,2.719-1.686t.971-3.867q0-3.032-1.138-4.116t-2.619-1.007l-8.536.458Zm45.256,29.45q-5.736.507-9.269-.886-3.552-1.4-5.141-5.6T45.344,59.925q0-8.025,1.463-12.529t4.885-6.438Q55.1,39.025,60.9,38.7q5.247-.294,8.324.678,3.061.968,4.4,3.813t1.335,8.18q0,3.988-1.367,6.437t-3.9,3.608q-2.54,1.158-6.006,1.421l-7.311.555q.192,2.3.8,3.625t2.263,1.769q1.652.443,4.881.182l9.46-.765v7.2q-2.3.843-5.276,1.747T61.347,78.426Zm-5.1-22.4,6.237-.436q1.581-.11,2.275-.877t.694-2.632q0-1.723-.441-2.735t-1.452-1.415q-1.012-.4-2.661-.3t-2.672.855q-1.021.752-1.5,2.553T56.251,56.026ZM87.428,76.191q-3.78.334-6.109-2.045t-2.338-6.861V63.594q0-4.33,2.675-7.36t8.318-3.408l7.338-.508V50.5q0-1.538-.478-2.485t-1.858-1.279Q93.6,46.4,90.7,46.59l-9.627.616V40.191q2.452-1.2,5.716-2.06,3.246-.852,7.828-1.18,4.01-.225,6.926.726t4.465,3.6q1.559,2.643,1.559,7.7V73.994l-8.105.714-1.611-3.7q-.538.6-1.465,1.419t-2.28,1.633q-1.354.82-3.043,1.39T87.428,76.191Zm5.385-8.826q.421.036.993-.151t1.111-.406q.54-.219,1.049-.435t.838-.417q.329-.2.508-.286V57.98l-3.838.7q-1.989.429-2.986,1.452t-1,2.784V64.4q0,1.2.424,1.9t1.179.924Q91.848,67.443,92.813,67.365Zm20.427,6.13V36.388l7.747-.438,2.236,5.208q1.486-2.481,3.423-4.334t4.589-2q.508-.028,1.156,0t1.21.2v12q-.9-.076-1.858-.08T129.934,47q-1.472.1-2.693.554t-2.22,1.241q-1,.785-1.8,2V72.615Zm45.593-4.016L149.4,20.7l9.7-.433,5.616,31.737,6.561-32.281,8.146-.363,6.339,31.107,5.355-31.629,9.01-.4-8.756,48.17-8.9.784-7.108-31.124L168.113,68.66Zm53.975-4.439q-3.375.3-5.761-.411t-3.883-2.654q-1.491-1.947-2.139-5.244t-.648-8.155q0-5.237.673-8.7t2.164-5.522q1.487-2.06,3.883-3.023t5.711-1.145q3.4-.191,5.724.527t3.726,2.6q1.412,1.885,2.08,5.185t.668,8.29q0,4.931-.62,8.289t-2.032,5.45q-1.415,2.094-3.75,3.144T212.808,65.039Zm0-8.65q1.12-.09,1.85-.432t1.165-1.227q.436-.884.654-2.663t.218-4.735q0-2.957-.218-4.7t-.654-2.568q-.437-.822-1.165-1.027t-1.85-.133q-1.074.069-1.807.369t-1.2,1.185q-.466.886-.662,2.672t-.2,4.766q0,2.978.2,4.737t.662,2.577q.466.818,1.2,1.044T212.808,56.389Zm16.235,6.9V29.838l6.722-.38,1.4,3.191q1.256-1.554,3.274-2.841t4.127-1.4q3.114-.175,4.755,1.319t2.248,4.192q.611,2.7.611,5.984V61.255l-7.891.7v-20.1q0-1.41-.368-2.243t-1.013-1.191q-.646-.357-1.523-.3-.786.051-1.574.379t-1.439.865q-.651.536-1.21,1.191v22.03Zm28.5-14.916L256.6,15.983l7.707-.344-1.062,32.3Zm.582,12.475q-1.03.091-1.03-1.241V52.952q0-1.392,1.03-1.474l4.456-.353q1.019-.081,1.019,1.3v6.618q0,.722-.288,1.048t-.732.365Z" transform="translate(16.783 239.095)" fill="#0a0314"/>
    </g>
  </g>
</svg>
