<?xml version="1.0" encoding="UTF-8" standalone="no"?>
<!-- Created with Inkscape (http://www.inkscape.org/) -->

<svg
   width="44.108799mm"
   height="44.229015mm"
   viewBox="0 0 44.108799 44.229015"
   version="1.1"
   id="svg1710"
   inkscape:version="1.1.1 (3bf5ae0d25, 2021-09-20)"
   sodipodi:docname="chart.svg"
   xmlns:inkscape="http://www.inkscape.org/namespaces/inkscape"
   xmlns:sodipodi="http://sodipodi.sourceforge.net/DTD/sodipodi-0.dtd"
   xmlns="http://www.w3.org/2000/svg"
   xmlns:svg="http://www.w3.org/2000/svg">
  <sodipodi:namedview
     id="namedview1712"
     pagecolor="#ffffff"
     bordercolor="#666666"
     borderopacity="1.0"
     inkscape:pageshadow="2"
     inkscape:pageopacity="0.0"
     inkscape:pagecheckerboard="0"
     inkscape:document-units="mm"
     showgrid="false"
     fit-margin-top="0"
     fit-margin-left="0"
     fit-margin-right="0"
     fit-margin-bottom="0"
     inkscape:zoom="2.5048077"
     inkscape:cx="73.458733"
     inkscape:cy="50.502879"
     inkscape:window-width="1280"
     inkscape:window-height="668"
     inkscape:window-x="0"
     inkscape:window-y="0"
     inkscape:window-maximized="1"
     inkscape:current-layer="layer1" />
  <defs
     id="defs1707" />
  <g
     inkscape:label="Layer 1"
     inkscape:groupmode="layer"
     id="layer1"
     transform="translate(-64.938831,-97.421795)">
    <g
       id="g1748">
      <path
         style="fill:#c87137;fill-opacity:1;stroke:#000000;stroke-width:0.264583px;stroke-linecap:butt;stroke-linejoin:miter;stroke-opacity:1"
         d="m 66.332046,103.49884 -1.25849,-0.0284 0.0284,-1.52344 2.0377,-4.372061 0.88946,-0.01893 2.32264,5.832541 h -1.36365 l -0.0323,34.29222 34.144974,0.12131 -0.11355,-1.47613 5.92811,2.38407 v 0.83269 l -4.66094,2.0469 -1.35869,0.0304 0.0903,-1.46562 -35.913834,0.1514 -0.82322,-0.7286 z"
         id="path45"
         sodipodi:nodetypes="cccccccccccccccccc" />
      <path
         style="fill:#c87137;stroke:#000000;stroke-width:0.264583px;stroke-linecap:butt;stroke-linejoin:miter;stroke-opacity:1;fill-opacity:1"
         d="m 71.024736,118.25308 0.72861,2.42236 c 0,0 3.82966,-1.05408 6.99703,-2.26672 3.16737,-1.21264 7.0529,-3.61995 7.0529,-3.61995 0,0 2.51815,-1.37136 4.18953,-2.61069 1.67137,-1.23933 5.05134,-4.3148 5.05134,-4.3148 l 1.79785,-1.56129 2.52509,1.66581 0.832664,-8.397702 -7.593564,3.639132 2.27554,1.54813 c 0,0 -1.39097,1.58968 -3.63354,3.42537 -2.24258,1.8357 -2.92327,2.36559 -4.91982,3.62408 -1.99656,1.2585 -3.37168,2.24072 -6.94844,3.64115 -3.57677,1.40042 -8.35519,2.80512 -8.35519,2.80512 z"
         id="path47"
         sodipodi:nodetypes="ccscsccccccsssc" />
      <rect
         style="fill:#c87137;stroke:#1a1a1a;stroke-width:0.264583"
         id="rect474"
         width="6.7972155"
         height="8.3866043"
         x="71.595566"
         y="127.32513"
         ry="0.79999942" />
      <rect
         style="fill:#c87137;stroke:#1a1a1a;stroke-width:0.264583"
         id="rect476"
         width="6.8436356"
         height="15.593499"
         x="81.052429"
         y="120.11824"
         ry="0.79999942" />
      <rect
         style="fill:#c87137;stroke:#1a1a1a;stroke-width:0.264583"
         id="rect478"
         width="6.8579774"
         height="21.646103"
         x="92.064331"
         y="114.06564"
         ry="0.79999942" />
    </g>
  </g>
</svg>
