<?xml version="1.0" encoding="UTF-8" standalone="no"?>
<!-- Svg Vector Icons : http://www.onlinewebfonts.com/icon -->

<svg
   version="1.1"
   x="0px"
   y="0px"
   viewBox="0 0 1000 1000"
   enable-background="new 0 0 1000 1000"
   xml:space="preserve"
   id="svg12"
   sodipodi:docname="dogehouse.svg"
   inkscape:version="1.1.1 (3bf5ae0d25, 2021-09-20)"
   xmlns:inkscape="http://www.inkscape.org/namespaces/inkscape"
   xmlns:sodipodi="http://sodipodi.sourceforge.net/DTD/sodipodi-0.dtd"
   xmlns="http://www.w3.org/2000/svg"
   xmlns:svg="http://www.w3.org/2000/svg"><defs
   id="defs16" /><sodipodi:namedview
   id="namedview14"
   pagecolor="#ffffff"
   bordercolor="#666666"
   borderopacity="1.0"
   inkscape:pageshadow="2"
   inkscape:pageopacity="0.0"
   inkscape:pagecheckerboard="0"
   showgrid="false"
   inkscape:zoom="0.26263265"
   inkscape:cx="485.46896"
   inkscape:cy="763.42374"
   inkscape:window-width="1280"
   inkscape:window-height="668"
   inkscape:window-x="0"
   inkscape:window-y="0"
   inkscape:window-maximized="1"
   inkscape:current-layer="svg12" />
<metadata
   id="metadata2"> Svg Vector Icons : http://www.onlinewebfonts.com/icon </metadata>
<g
   id="g10"><g
     transform="translate(0.000000,512.000000) scale(0.100000,-0.100000)"
     id="g8"><path
       d="M2472,2684.9C-53.7,157.3,78.4,298.9,112.8,121c11.5-59.3,55.5-114.8,254.5-317.6C501.2-332.5,633.3-455,662-470.3c65.1-34.5,189.4-34.5,269.8,0c36.4,15.3,857.2,824.7,1974.7,1944c1052.4,1054.3,1936.4,1928.7,1965.1,1944c28.7,15.3,86.1,26.8,130.1,26.8c44,0,101.4-11.5,130.1-26.8c28.7-15.3,912.7-889.7,1965.1-1944C8149.2,419.5,9033.2-455,9061.9-470.3c67-34.5,212.4-34.5,279.4,0C9370-455,9502-332.5,9634-196.7c212.4,214.3,244.9,254.5,256.4,325.3c28.7,174.1,141.6,51.7-2361.2,2556.3L5202.5,5013.6h-200.9h-200.9L2472,2684.9z"
       id="path4"
       style="fill:#e2cf22;fill-opacity:1" /><path
       d="M 4898.3,2765.3 C 4837.1,2744.3 4439.1,2355.8 2960,876.7 L 1098.2,-985 v -1808.2 -1810.1 l 42.1,-84.2 44,-86.1 h 1213.1 813.1 l 45.9,84.2 44,84.2 v 1052.4 1052.4 l 47.8,80.4 c 89.9,156.9 522.3265,684.7685 1660.8265,690.4685 1039,5.7 1486.9735,-531.6685 1573.0735,-602.4685 22.9,-19.1 59.3,-63.1 80.4,-99.5 40.2,-63.2 40.2,-179.0927 40.2,-1117.5 v -1054.3 l 44,-84.2 42.1,-86.1 h 815 1215 l 44,86.1 42.1,84.2 V -2793.2 -985 L 7035.6,884.4 C 4953.8,2964.3 5097.3,2836.1 4898.3,2765.3 Z M 4687.8,1493.2 c 59.3,-30.6 156.9,-147.3 191.3,-229.6 19.1,-40.2 32.5,-126.3 34.4,-204.7 1.9,-109.1 -5.7,-149.2 -44,-214.3 -59.3,-105.2 -178,-170.3 -273.6,-151.2 -220,40.2 -388.4,354 -323.4,600.8 28.7,101.4 120.6,208.6 200.9,229.6 63.2,17.2 149.3,5.7 214.4,-30.6 z m 947.2,-5.8 c 195.2,-137.8 177.9,-510.9 -30.6,-704.1 -235.3,-216.2 -510.9,-36.4 -482.2,313.8 11.5,149.2 89.9,300.4 193.2,377 95.7,68.8 233.4,74.6 319.6,13.3 z M 4098.5,1046.2 c 302.3,-243 212.4,-803.6 -122.5,-765.4 -227.7,24.9 -294.9947,134.00929 -332.9,366.6 -28.1638,233.70956 49.8,352.9 97.6,398.8 72.7,72.7 78.5,74.6 179.9,67 80.3,-7.6 122.4,-23 177.9,-67 z m 2160.2,32.6 C 6436.6,971.6 6455.8,638.7 6297,424.4 6239.6,346 6113.3,275.2 6031,275.2 c -82.3,0 -181.8,65.1 -231.5,149.2 -19.1,32.5 -40.2,111 -45.9,174.1 -30.6,336.8 269.8,623.8 505.1,480.3 z M 5173.1973,450.15182 C 5329.3295,414.68599 5315.4737,439.7458 5483.8,325.7 5546.9,197.5 5623.5,63.6 5652.2,27.2 c 30.6,-38.3 133.9,-111 239.2,-172.2 233.5,-132 283.2,-451.3 292.8,-615.9 9.6,-149.3 -36.4,-256.4 -156.9,-367.4 -145.4,-133.9 -287,-147.3 -639.1,-67 -277.4,63.1 -465,65 -702.2,7.6 -93.8,-24.9 -239.2,-47.8 -319.5,-53.6 -133.9,-9.6 -156.9,-5.7 -252.6,40.2 -195.2,95.7 -311.9,321.4 -260.2,507.1 28.7,111 111,455.2 271.7,539.4 214.3,112.9 283.2,189.4 413.3,455.4 104.3391,106.90726 219.9,120.8 388.3,153.4 86.1,17.2 137.0973,28.45182 246.1973,-4.04818 z"
       id="path6"
       sodipodi:nodetypes="cccccccccccccccccsccccccccccccccccccccccccccccccccscccccccccccccccccc"
       style="fill:#e2cf22;fill-opacity:1" /></g></g>
</svg>
