<?xml version="1.0" encoding="utf-8"?>
<!-- Generator: Adobe Illustrator 25.4.1, SVG Export Plug-In . SVG Version: 6.00 Build 0)  -->
<svg version="1.1" id="Capa_1" xmlns="http://www.w3.org/2000/svg" xmlns:xlink="http://www.w3.org/1999/xlink" x="0px" y="0px"
	 viewBox="0 0 111.3 124" style="enable-background:new 0 0 111.3 124;" xml:space="preserve">
<style type="text/css">
	.st0{opacity:0.7;}
	.st1{fill:#010101;}
	.st2{fill:#B66A2A;}
	.st3{fill:#BABABA;}
	.st4{fill:#FE943A;}
	.st5{fill:#FEC494;}
	.st6{fill:#FD943A;}
	.st7{fill:#FEFEFD;}
	.st8{fill:#FFFFFF;}
	.st9{fill:#FF9D00;}
</style>
<g class="st0">
	<path d="M48.9,118c0,1.1,0,2.1,0,3.2c0,0.5,0.1,0.6,0.6,0.6c0.2,0,0.3,0,0.5,0c15.7,0,31.4,0,47.1,0c0.9,0,1.2-0.2,1.1-1.1
		s0-1.8,0-2.7l-0.1-0.1c-0.3-0.2-0.6-0.2-0.9-0.2c-4.7,0-9.4,0-14.1,0c-1.8-0.1-3.7,0-5.5,0c-8.9,0-17.8,0-26.8,0
		c-0.6,0-1.1-0.1-1.7,0.2C49,117.9,49,117.9,48.9,118z"/>
	<path d="M105.7,106.6c1,0,2,0,2.9,0c0.7,0.1,0.9-0.2,0.9-0.9c0-6.5,0-13,0-19.5c0-0.8,0.4-1.8-0.2-2.2c-0.4-0.4-1.4-0.1-2.2-0.1
		c-0.5,0-0.9,0-1.4,0l-0.1,0.1c-0.2,0.4-0.2,0.9-0.2,1.3c0,2.1,0,4.1,0,6.2c-0.1,4.7,0,9.4,0,14.1
		C105.4,105.9,105.4,106.2,105.7,106.6C105.6,106.5,105.7,106.6,105.7,106.6z"/>
	<path d="M79.2,53.6c-6.3,0-12.6,0-19,0l-0.1,0.1c-0.2,1.3-0.4,2.5,0.2,3.7c0.4,0.3,0.9,0.2,1.4,0.2c5.4,0,10.7,0,16.1,0
		c0.5,0,1,0,1.4-0.2c0.6-1.2,0.4-2.5,0.2-3.7C79.3,53.7,79.3,53.7,79.2,53.6z"/>
	<path d="M37.6,83.9c-1.1,0-2.1,0-3.2,0c-0.5,0-0.6,0.1-0.6,0.6c0,5.9,0,11.9,0,17.8c0,0.5,0.1,0.6,0.6,0.6c1.1,0,2.1,0,3.2,0
		l0.1-0.1c0.2-0.3,0.2-0.6,0.2-0.9c0-4.7,0-9.3,0-14c0-1.2,0.2-2.5-0.2-3.7C37.7,84,37.6,84,37.6,83.9z"/>
	<path d="M98.1,68.8c0-3.5,0-7.1,0-10.6c0-0.6-0.2-0.8-0.8-0.8c-1,0.1-2,0-3,0l-0.1,0.1C94,57.9,94,58.2,94,58.6c0,3,0,5.9,0,8.9
		c0,0.4,0,0.8,0.2,1.2c1.2,0.6,2.5,0.3,3.7,0.2C98,68.9,98.1,68.8,98.1,68.8z"/>
	<path d="M45.1,61.2c-1,0-2,0-3,0c-0.6,0-0.8,0.2-0.8,0.8c0,3.5,0,7.1,0,10.6l0.1,0.1c1.2,0.2,2.4,0.2,3.6,0
		c0.1-0.1,0.2-0.2,0.2-0.3c0.1-0.4,0.1-0.7,0.1-1.1c0-2.9,0-5.8,0-8.8C45.3,62.1,45.3,61.7,45.1,61.2C45.2,61.3,45.2,61.3,45.1,61.2
		z"/>
	<path d="M41.4,72.6c-1,0-2,0-3,0c-0.6,0-0.8,0.2-0.8,0.8c0,3.5,0,7.1,0,10.6l0,0c1.3,0.5,2.5,0.5,3.8,0c0.3-0.4,0.3-0.9,0.3-1.4
		c0-2.9,0-5.8,0-8.7C41.7,73.4,41.7,72.9,41.4,72.6L41.4,72.6z"/>
	<path d="M90.6,49.9c0-1.1,0-2.1,0-3.2c0-0.4-0.1-0.6-0.6-0.6c-2.1,0-4.3,0-6.4,0c-0.5,0-0.6,0.1-0.6,0.6c0,1.1,0,2.1,0,3.2l0.1,0.1
		c1.2,0.3,2.4,0.1,3.5,0.1c1.2,0,2.5,0.2,3.7-0.1C90.5,49.9,90.5,49.9,90.6,49.9z"/>
	<path d="M94.4,57.4c0-2.3,0-4.6,0-6.9c0-0.5-0.1-0.7-0.7-0.7c-1,0-2.1,0-3.1,0l0,0c-0.3,0.3-0.3,0.7-0.3,1.1c0,1.8,0,3.6,0,5.5
		c0,1.1,0.3,1.4,1.3,1.3C92.5,57.7,93.5,58,94.4,57.4L94.4,57.4z"/>
	<path d="M48.9,53.6c-1,0-2.1,0-3.1,0c-0.5,0-0.7,0.1-0.7,0.7c0,2.3,0,4.6,0,6.9l0,0c1.1,0.6,2.3,0.3,3.5,0.2c0.5-0.1,0.6-0.5,0.6-1
		c0-1,0-1.9,0-2.9c0-1.2,0.2-2.5-0.1-3.7C49,53.7,49,53.7,48.9,53.6z"/>
	<path d="M101.9,76.4c0-2.3,0-4.6,0-6.9c0-0.5-0.1-0.7-0.7-0.7c-1,0-2.1,0-3.1,0l0,0c-0.3,0.3-0.3,0.7-0.3,1.2c0,1.8,0,3.5,0,5.3
		c0,1.2,0.2,1.5,1.4,1.5c0.8,0,1.7,0.2,2.5-0.2C101.8,76.4,101.9,76.4,101.9,76.4z"/>
	<path d="M37.6,102.8c0,2.3,0,4.6,0,6.9c0,0.6,0.1,0.8,0.7,0.7c1-0.1,2.1,0,3.1,0l0.1-0.1c0.3-1.2,0.1-2.5,0.1-3.7
		c0.1-0.9,0-1.9,0-2.8c0-0.8-0.4-1.2-1.1-1.2C39.5,102.6,38.5,102.3,37.6,102.8L37.6,102.8z"/>
	<path d="M101.9,114.2c1,0,2.1,0,3.1,0c0.5,0,0.7-0.2,0.7-0.7c0-2.3,0-4.6,0-6.9l0,0c-1.1-0.6-2.3-0.3-3.5-0.2
		c-0.3,0-0.5,0.4-0.5,0.7c0,2.3-0.2,4.6,0.1,6.9C101.8,114.1,101.9,114.2,101.9,114.2z"/>
	<path d="M105.7,83.9c0-2.3,0-4.6,0-6.9c0-0.5-0.1-0.7-0.7-0.7c-1,0-2.1,0-3.1,0l0,0c-0.3,0.3-0.3,0.7-0.3,1.1c0,1.8,0,3.6,0,5.5
		c0,1.1,0.3,1.4,1.3,1.3C103.9,84.2,104.9,84.5,105.7,83.9L105.7,83.9z"/>
	<path class="st1" d="M56.5,49.9c0-1.1,0-2.1,0-3.2c0-0.4-0.1-0.7-0.6-0.6h-0.1c-1,0-2.3-0.3-2.9,0.2c-0.6,0.5-0.1,1.9-0.2,2.9
		c0,0.3,0,0.5,0,0.8l0.1,0.1c1.2,0.2,2.3,0.2,3.5,0C56.4,49.9,56.4,49.9,56.5,49.9z"/>
	<path class="st1" d="M83,49.9c-1.1,0-2.1,0-3.2,0c-0.5,0-0.6,0.1-0.6,0.6c0,1.1,0,2.1,0,3.2l0,0c1.1,0.6,2.3,0.3,3.5,0.2
		c0.3,0,0.5-0.2,0.5-0.5C83.3,52.2,83.6,51,83,49.9L83,49.9z"/>
	<path class="st1" d="M60.3,53.6c0-1.1,0-2.1,0-3.2c0-0.5-0.1-0.6-0.6-0.6c-1.1,0-2.1,0-3.2,0l0,0c-0.6,1.1-0.3,2.3-0.2,3.5
		c0,0.3,0.2,0.5,0.5,0.5C58,53.9,59.2,54.2,60.3,53.6L60.3,53.6z"/>
	<path class="st1" d="M52.7,49.9c-1.1,0-2.1,0-3.2,0c-0.5,0-0.6,0.1-0.6,0.6c0,1.1,0,2.1,0,3.2l0,0c1.1,0.6,2.3,0.3,3.5,0.2
		c0.3,0,0.5-0.2,0.5-0.5C53,52.2,53.3,51,52.7,49.9L52.7,49.9z"/>
	<path class="st1" d="M41.4,110.4c0,1.1,0,2.1,0,3.2c0,0.5,0.1,0.6,0.6,0.6c1.1,0,2.1,0,3.2,0l0.1-0.1c0.2-1.2,0.2-2.4,0-3.6
		c-0.1-0.1-0.1-0.2-0.3-0.2C43.8,110.1,42.5,109.9,41.4,110.4L41.4,110.4z"/>
	<path class="st1" d="M98.1,118c1.1,0,2.1,0,3.2,0c0.5,0,0.6-0.1,0.6-0.6c0-1.1,0-2.1,0-3.2l0,0c-1.1-0.6-2.3-0.3-3.5-0.2
		c-0.3,0-0.5,0.2-0.5,0.5C97.8,115.7,97.6,116.9,98.1,118L98.1,118z"/>
	<path class="st1" d="M45.1,114.2c0,1.1,0,2.1,0,3.2c0,0.5,0.1,0.6,0.6,0.6c1.1,0,2.1,0,3.2,0l0,0c0.5-1.2,0.3-2.4,0.2-3.7
		c-0.1-0.1-0.1-0.2-0.2-0.3C47.6,113.9,46.3,113.7,45.1,114.2L45.1,114.2z"/>
	<path class="st2" d="M98.2,118c0-1.1,0-2.1,0-3.2c0-0.4,0.2-0.6,0.6-0.6c1.1,0,2.1,0,3.2,0c0-2.3,0-4.5,0-6.8
		c0-0.6,0.2-0.8,0.8-0.8c1,0,2,0,3,0c0-5.1,0-10.1,0-15.2c-1.1-0.5-2.3-0.3-3.4-0.2c-0.4,0-0.5,0.3-0.6,0.7
		c-0.1,0.4-0.1,0.8-0.1,1.1c0,2.1,0.1,1.9-1.9,1.9c-0.3,0-0.5,0-0.8,0c-0.7,0-1.1,0.4-1.1,1.1c0,0.5,0,1,0,1.5
		c0,1.1-0.1,1.1-1.1,1.1c-1.6,0-3.2,0-4.8,0c-0.5,0-1,0-1.4,0.3c-0.3,0.4-0.3,0.9-0.3,1.4c0,1.6,0,3.3,0,4.9c0,0.8-0.3,1.1-1.1,1
		c-0.4,0-0.9,0-1.3,0c-1.2,0-1.4,0.2-1.4,1.4c0,1.6,0,3.2,0,4.8c0,1.3-0.1,1.3-1.3,1.4c-2.5,0-2.5,0-2.5,2.5c0,0.5-0.1,1.1,0.3,1.5
		C88,118,93.1,118,98.2,118z"/>
	<path class="st3" d="M83,118c0-0.9,0.1-1.9,0-2.8c-0.1-0.8,0.3-1,1-0.9c0.6,0.1,1.3,0,1.9,0c0.7,0.1,1-0.2,1-0.9
		c-0.1-1.9,0-3.8,0-5.8c0-0.7,0.2-1,0.9-0.9c0.7,0.1,1.5,0,2.2,0c0.6,0,0.7-0.2,0.7-0.8c0-2.3,0-4.5,0-6.8L90.6,99
		c-1-0.3-2.1-0.2-3.2-0.1c-0.5,0-0.7,0.4-0.8,0.9c-0.1,0.7,0,1.3,0,2c0,0.5-0.3,0.8-0.8,0.8c-0.6,0-1.1,0-1.7,0
		c-1,0.1-1.2,0.3-1.2,1.3c0,1.7,0,3.4,0,5.1c0,1.1-0.1,1.2-1.2,1.2c-0.5,0-1,0-1.5,0c-0.7,0-1,0.4-1.1,1.1c0,0.5,0,1.1,0,1.6
		c0,0.8-0.3,1.1-1,1.1c-0.3,0-0.6,0-0.9,0c-8.8,0-17.6,0-26.4,0c-0.6,0-1.1-0.1-1.6,0.3c0,1.3,0,2.5,0,3.8c11,0,22,0,32.9,0
		C82.2,118,82.6,118,83,118z"/>
	<path class="st4" d="M90.6,99.1c2.2,0,4.4,0,6.6,0c0.8,0,1-0.3,0.9-1s0-1.5,0-2.2c0-0.5,0.2-0.7,0.7-0.7c0.8,0,1.6,0,2.4,0
		c0.6,0,0.8-0.1,0.8-0.7c0-0.7,0-1.5,0-2.2c-0.1-0.7,0.2-0.9,0.9-0.9c0.9,0,1.9,0,2.8,0c0-2.5,0-5,0-7.6c-1,0-2.1,0-3.1,0
		c-0.5,0-0.7-0.2-0.7-0.7c0-2.3,0-4.6,0-6.9c-1,0-2.1,0-3.1,0c-0.5,0-0.7-0.2-0.7-0.7c0-2.3,0-4.6,0-6.9c-1.3,0-2.5,0-3.8,0
		c-0.7-0.5-1.5-0.2-2.3-0.3c-1.1-0.1-1.2-0.1-1.2-1.2c0-0.4,0-0.8,0-1.2c0-1.1-0.2-1.3-1.4-1.4c-0.4,0-0.8,0-1.1,0
		c-1.1,0-1.2-0.1-1.2-1.3c0-0.5,0-1,0-1.5c0-0.6-0.4-1-1-1s-1.3,0-1.9,0s-0.9-0.3-0.9-0.9c0-0.6,0-1.3,0-1.9c0-0.4-0.1-0.9-0.6-0.9
		c-1.1-0.1-2.3-0.3-3.4,0.2c-6.3,0-12.6,0-18.9,0c-0.4-0.3-0.8-0.3-1.3-0.3c-2.9,0-5.9,0-8.8,0c-0.4,0-0.9,0-1.2,0.3
		c0,1.1,0,2.1,0,3.2c0,0.4-0.1,0.6-0.6,0.6c-1.1,0-2.1,0-3.2,0c0,3.8,0,7.6,0,11.4c0.7,0.5,1.5,0.2,2.2,0.3c0.5,0,1.1,0,1.6,0
		c2,0,4,0,5.9,0c1.3,0,1.3,0,1.4,1.4c0,1.5,0,3,0,4.4c0,1.1-0.1,1.1-1.1,1.1c-2,0-4.1,0-6.1,0c-0.8,0-1.6,0-2.4,0
		c-0.8,0-1.1-0.3-1.1-1c0-1.6,0-3.3,0-4.9c0-0.5,0-1-0.3-1.3c-1.3,0-2.5,0-3.8,0c0,3.8,0,7.6,0,11.4l0.1,0.1c0.5,0.2,1,0.2,1.5,0.2
		c3.9,0,7.9,0,11.8,0c1.3,0,1.4,0,1.4,1.4c0,1.8,0,1.8-1.8,1.8c-0.3,0-0.5,0-0.8,0c-0.9,0.1-1.2,0.3-1.2,1.2c0,1.9,0,3.8,0,5.8
		c0,0.3,0,0.6,0.2,0.9c0.3,0.3,0.7,0.3,1.1,0.3c1.8,0,3.6,0,5.4,0c1.2,0,1.4-0.3,1.4-1.5c0-0.4,0-0.9,0-1.3c0-0.7,0.3-1,1-1
		c1.6,0,3.3,0,4.9,0c1.4,0,1.6-0.2,1.6-1.6c0-2.4-0.2-2.2,2.3-2.2c4.9,0,9.7,0,14.6,0c1.5,0,1.5,0,1.5,1.5c0,2.3,0,2.3,2.3,2.3
		c1.5,0,1.5,0,1.5,1.5s0,3,0,4.5C90.3,98.2,90.2,98.7,90.6,99.1L90.6,99.1z"/>
	<path class="st5" d="M79.2,57.4c1,0,2,0.1,2.9,0c0.7,0,0.9,0.2,0.9,0.9c-0.1,0.7,0,1.4,0,2.2c0,0.5,0.2,0.7,0.7,0.7
		c0.8,0,1.6,0,2.4,0c0.6,0,0.8,0.2,0.7,0.8c0,0.7,0,1.4,0,2.2c0,0.6,0.2,0.9,0.8,0.9c0.8-0.1,1.5,0,2.3,0c0.5,0,0.7,0.2,0.7,0.7
		c0,0.8,0,1.5,0,2.3c0,0.6,0.1,0.9,0.8,0.8c1,0,2,0,3,0c0-3.8,0-7.6,0-11.4c-1,0-2.1,0-3.1,0c-0.5,0-0.7-0.2-0.7-0.7
		c0-2.3,0-4.6,0-6.9c-2.5,0-5.1,0-7.6,0c0,1.1,0,2.1,0,3.2c0,0.5-0.1,0.6-0.6,0.6c-1.1,0-2.1,0-3.2,0C79.2,54.9,79.2,56.1,79.2,57.4
		z"/>
	<path class="st5" d="M49,57.4c3.8,0,7.6,0,11.3,0c0-1.3,0-2.5,0-3.8c-1.1,0-2.1,0-3.2,0c-0.5,0-0.6-0.1-0.6-0.6c0-1.1,0-2.1,0-3.2
		c-1.3,0-2.5,0-3.8,0c0,1.1,0,2.1,0,3.2c0,0.5-0.1,0.6-0.6,0.6c-1.1,0-2.1,0-3.2,0C48.9,54.9,48.9,56.1,49,57.4z"/>
	<path class="st5" d="M90.5,99.1c0-2.3,0-4.6,0-6.9c0-0.6-0.2-0.7-0.7-0.7c-0.8,0-1.6,0-2.4,0c-0.5,0-0.7-0.2-0.7-0.7
		c0-0.7,0-1.5,0-2.2c0.1-0.7-0.2-0.9-0.9-0.9c-2.8,0-5.5,0-8.3,0c-3,0-5.9,0-8.9,0c-0.7,0-0.9,0.2-0.9,0.9c0,0.7,0,1.3,0,2
		c0.1,0.7-0.2,1-0.9,1c-1.9-0.1-3.8,0-5.8,0c-0.7,0-1,0.2-0.9,0.9v0.1c-0.1,0.9,0.4,2.1-0.2,2.6c-0.6,0.5-1.7,0.1-2.7,0.2
		c-1.6,0-3.2,0-4.7,0c-1.1-0.5-2.3-0.3-3.4-0.2c-0.3,0-0.5,0.2-0.6,0.6c-0.1,1.1-0.3,2.3,0.2,3.4c0.4,0.4,1,0.3,1.5,0.3
		c5.2,0,10.4,0,15.6,0c1.5,0,1.5,0,1.5,1.5c0,1.6,0,1.6-1.7,1.6c-5.1,0-10.2,0-15.2,0c-1.4,0-1.4,0-1.4-1.4c0-0.7,0.2-1.4-0.3-2
		c-0.7-0.6-1.5-0.3-2.3-0.3c-1.2-0.1-1.2-0.1-1.2-1.2c0-0.5,0-1,0-1.5c0-0.7-0.4-1-1.1-1.1c-0.5,0-0.9,0-1.4,0c-1.3,0-1.3,0-1.3-1.3
		c0-1.6,0-3.1,0-4.7c0-0.4,0-0.9-0.3-1.3c-1.3-0.4-2.5-0.5-3.8,0.1c0,4.5,0,9,0,13.6c0,0.5,0,1.1,0,1.6c1,0,2.1,0,3.1,0
		c0.5,0,0.7,0.1,0.7,0.7c0,1,0,2.1,0,3.1c0.4,0.4,0.9,0.3,1.3,0.3c2.4,0,2.1-0.2,2.1,2.2c0,0.5,0,0.9,0.3,1.3l0,0
		c0.7,0.5,1.5,0.2,2.3,0.3c1.2,0,1.2,0.1,1.2,1.2c0,0.8-0.2,1.6,0.3,2.3l0,0c9.7,0,19.4,0,29.1,0c1,0,1.3-0.2,1.2-1.2
		c-0.1-0.8-0.4-1.9,0.2-2.4c0.5-0.5,1.6-0.1,2.4-0.2c1.2,0,1.2,0,1.2-1.2c0-1.9,0-3.7,0-5.6c0-0.6,0.2-0.8,0.8-0.8
		c0.7,0,1.5,0,2.2,0c0.6,0,0.9-0.2,0.9-0.8c-0.1-0.7,0-1.5,0-2.2c0-0.6,0.2-0.8,0.8-0.8C88.6,99.1,89.6,99.1,90.5,99.1z"/>
	<path class="st6" d="M37.6,87.7c1.2,0,2.5,0,3.7,0c0.6-1.3,0.5-2.5,0-3.8l0,0c-1.3,0-2.5,0-3.8,0C37.6,85.2,37.6,86.4,37.6,87.7z"
		/>
	<path class="st3" d="M45.1,110.4c0-1,0-2,0-2.9c0-0.7-0.2-0.9-0.9-0.9c-0.9,0.1-1.9,0-2.8,0c0,1.3,0,2.5,0,3.8
		C42.6,110.4,43.9,110.4,45.1,110.4z"/>
	<path class="st3" d="M48.9,114.2c0-1,0-2.1,0-3.1c0-0.5-0.2-0.7-0.7-0.7c-1,0-2.1,0-3.1,0c0,1.3,0,2.5,0,3.8
		C46.4,114.2,47.7,114.2,48.9,114.2z"/>
	<path d="M41.3,83.9c0,1.3,0,2.5,0,3.8c0,2.3,0,4.5,0,6.8c0,0.6,0.1,0.8,0.8,0.8c0.8-0.1,1.6,0,2.4,0c0.5,0,0.6,0.1,0.6,0.6
		c0,0.8,0,1.6,0,2.4c0,0.6,0.2,0.8,0.8,0.8c1,0,2,0,3,0l0,0c0-1,0-2.1,0-3.1c0-0.5,0.1-0.7,0.7-0.7c1,0,2.1,0,3.1,0
		c0-2.3,0-4.5,0-6.8c0-0.6,0.1-0.8,0.7-0.8c0.7,0.1,1.4-0.1,2.1,0c0.9,0.1,1.1-0.3,1-1.1c-0.1-0.9,0.3-2-0.2-2.6s-1.7-0.2-2.6-0.2
		C49.6,83.9,45.5,83.9,41.3,83.9z"/>
	<path d="M71.6,83.9c2.3,0,4.7,0,7,0c0.4,0,0.6-0.1,0.6-0.6c0-2.1,0-4.3,0-6.4c0-0.5-0.2-0.6-0.6-0.6c-2.3,0-4.7,0-7,0
		c-0.3,0.3-0.3,0.6-0.3,1c0,1.9,0,3.7,0,5.6C71.4,83.3,71.4,83.6,71.6,83.9z"/>
	<path d="M48.9,80.1c2.3,0,4.7,0,7,0c0.4,0,0.6-0.1,0.6-0.6c0-2.1,0-4.3,0-6.4c0-0.5-0.2-0.6-0.6-0.6c-2.3,0-4.7,0-7,0
		c-0.3,0.3-0.3,0.6-0.3,1c0,1.9,0,3.7,0,5.6C48.6,79.5,48.6,79.8,48.9,80.1z"/>
	<path class="st7" d="M71.6,83.9c0-2.5,0-5,0-7.5c-1,0-2.1,0-3.1,0c-0.5,0-0.7,0.1-0.7,0.6c0,2.1,0,4.2,0,6.3c0,0.5,0.2,0.6,0.7,0.6
		C69.6,83.9,70.6,83.9,71.6,83.9z"/>
	<path class="st7" d="M48.9,80.1c0-2.5,0-5,0-7.5c-1.3,0-2.5,0-3.8,0l0,0c0,2.3,0,4.5,0,6.8c0,0.6,0.1,0.8,0.8,0.8
		C46.9,80.1,47.9,80.1,48.9,80.1z"/>
	<path d="M48.9,99.1c0,1.1,0,2.1,0,3.2c0,0.4,0.1,0.6,0.6,0.6c5.9,0,11.8,0,17.8,0c0.4,0,0.6-0.1,0.6-0.6c0-0.8-0.1-1.6,0-2.5
		c0-0.7-0.2-0.8-0.8-0.8C61,99.1,55,99.1,48.9,99.1L48.9,99.1z"/>
</g>
<g>
	<g>
		<path class="st8" d="M36.6,53.5c0-2.4,0-4.7,0-7c2.3,0,4.6,0,6.9,0c0,2.3,0,4.7,0,7C41.2,53.5,38.9,53.5,36.6,53.5z"/>
	</g>
</g>
<path class="st9" d="M66.2,76.7c-1.1-1.2-2.1-2.3-3.1-3.5c-3.9-4.3-7.7-8.7-11.6-13c-0.2-0.2-0.4-0.3-0.7-0.3c-10.2,0-20.4,0-30.7,0
	c-4.1,0-7.8-1.2-11-3.8C5.6,53.2,3.5,49.5,3,45c0-0.9,0-1.7,0-2.5c0-6.3,0-12.7,0-19c0-3.7,1-7.1,3.2-10.1c2.9-4,6.9-6.3,11.8-6.9
	c0.7-0.1,1.5-0.1,2.2-0.1c13,0,25.9,0,38.9,0c4.4,0,8.2,1.3,11.5,4.2c3.2,2.8,5,6.3,5.6,10.5c0.1,0.8,0.1,1.7,0.2,2.5
	c0,6.4,0,12.7,0,19.1c0,4.3-1.4,8.1-4.2,11.4c-1.6,1.8-3.4,3.2-5.6,4.2c-0.3,0.1-0.4,0.3-0.4,0.6c0,5.7,0,11.5,0,17.2
	C66.2,76.2,66.2,76.4,66.2,76.7z M33.5,28.3c0-0.2,0-0.3,0-0.5c0-1.1,0-2.2,0.2-3.3c0.2-1.7,0.9-3.2,2.5-4c2.3-1.2,4.7-1.3,7.1,0
	c0.8,0.4,1.5,1.1,1.9,2c0.8,2,0.1,4.2-1.7,5.4c-1.4,0.9-2.7,1.9-4.1,2.8c-1.8,1.2-2.8,2.8-2.8,4.9c0,2.7,0,5.4,0,8.1v0.1
	c2.3,0,4.6,0,6.9,0c0-1.8,0-3.5,0-5.2c0-0.4,0-0.8,0.1-1.1c0.3-1.4,1.3-2.3,2.4-3.1c0.9-0.6,1.8-1.1,2.6-1.8
	c3.4-2.7,4.7-6.2,3.8-10.4c-0.9-3.9-3.3-6.6-6.9-8.3c-2.6-1.3-5.3-1.4-8.1-1c-4.6,0.6-7.7,3.4-9.6,7.5c-0.9,1.9-1,4-1.1,6.1
	c0,0.6,0,1.3,0,1.9C29,28.3,31.2,28.3,33.5,28.3z M36.6,53.5c2.3,0,4.6,0,6.9,0c0-2.4,0-4.7,0-7c-2.3,0-4.6,0-6.9,0
	C36.6,48.8,36.6,51.2,36.6,53.5z"/>
</svg>
