<?xml version="1.0" encoding="utf-8"?>
<!-- Generator: Adobe Illustrator 25.4.1, SVG Export Plug-In . SVG Version: 6.00 Build 0)  -->
<svg version="1.1" id="Capa_1" xmlns="http://www.w3.org/2000/svg" xmlns:xlink="http://www.w3.org/1999/xlink" x="0px" y="0px"
	 viewBox="0 0 111.3 124" style="enable-background:new 0 0 111.3 124;" xml:space="preserve">
<style type="text/css">
	.st0{fill:#FF9D00;}
	.st1{fill:#FFFFFF;}
</style>
<g>
	<path class="st0" d="M97.8,1.3C97.9,1.7,98,2.1,98,2.6c0,2.6,0,5.1,0,7.7c0,1-0.3,1.3-1.3,1.3c-1.7-0.1-3.5,0-5.4,0
		c0,1.8,0,3.6,0,5.3c0,7.5-1.4,14.7-4.5,21.6c-3.4,7.5-8.2,13.7-15.2,18.1c-1.9,1.2-3.6,5.8-2.8,7.9c0.4,1,1.1,2,1.9,2.5
		c11,6.5,16.8,16.6,19.6,28.9c0.9,4,1.2,8,1.2,12.1c0,1.4,0,2.8,0,4.5c1.7,0,3.4,0,5,0s1.6,0,1.6,1.6c0,2.4,0,4.8,0,7.2
		c0,1-0.3,1.4-1.3,1.4c-27.5,0-54.9,0-82.4,0c-0.9,0-1.3-0.3-1.3-1.3c0-2.6,0.1-5.1,0-7.7c0-1,0.4-1.3,1.3-1.3c1.7,0.1,3.5,0,5.4,0
		c0-2.1,0-4,0-6c0.1-8.1,1.9-15.9,5.5-23.1c3.5-6.8,8.3-12.4,14.8-16.2c2-1.2,2.8-3.4,2-5.9c-0.7-2.2-1.8-4.1-3.9-5.5
		c-8-5.3-13-13.1-16-22.3c-1.9-5.8-2.7-11.7-2.6-17.8c0-1.3,0-2.5,0-4c-1.7,0-3.4,0-5,0S13,11.6,13,10c0-2.4,0-4.8,0-7.2
		c0-0.5,0.1-0.9,0.2-1.4C41.5,1.3,69.7,1.3,97.8,1.3z M24.9,110.5c20.5,0,41,0,61.5,0c0-0.3,0.1-0.5,0.1-0.7
		c0.1-5.3-0.3-10.6-1.8-15.7c-2.8-9.7-7.9-17.7-16.6-22.9c-2.5-1.5-4-4-4.2-7.1c-0.4-4,1.2-7.3,3.5-10.4c0.4-0.5,0.9-1.1,1.5-1.4
		c3.8-2.3,7-5.3,9.6-9c4.7-6.7,7.2-14.2,7.8-22.4c0.2-2.4,0-4.9,0-7.4c-20.5,0-41,0-61.5,0c0,0.2-0.1,0.4-0.1,0.6
		c-0.1,6.2,0.4,12.2,2.4,18.1c2.9,8.6,7.7,15.7,15.5,20.3c0.3,0.2,0.6,0.5,0.9,0.7c1.6,2,2.8,4.1,3.4,6.6c1.3,5-0.4,9.3-4.7,11.9
		c-3.7,2.2-6.8,5.2-9.4,8.7c-4.9,6.8-7.4,14.6-8,23C24.7,105.8,24.9,108.1,24.9,110.5z"/>
	<path class="st1" d="M55.6,103.2c-6.9,0-13.8,0-20.8,0c-0.9,0-1.4-0.1-1.3-1.2c0.9-6.8,3.1-13.2,7.3-18.6c2-2.6,4.4-4.6,7.2-6.3
		c3-1.8,5.2-4.5,6.6-7.8c0.2-0.4,0.6-0.8,0.9-1.1c0.3,0.4,0.7,0.7,0.9,1.1c1.6,3.6,3.9,6.3,7.3,8.2c4.4,2.5,7.5,6.4,9.8,11
		c2.2,4.2,3.4,8.7,4.1,13.4c0.2,1.1-0.2,1.4-1.2,1.4C69.5,103.2,62.5,103.2,55.6,103.2z"/>
	<path class="st1" d="M74.2,31.8c0.8,0,0.9,0.5,0.6,1.1c-2.2,5.2-5.2,9.9-10.1,12.8c-4.1,2.4-6.3,6.2-8.1,10.3
		c-0.1,0.2-0.1,0.6-0.3,0.8c-0.2,0.3-0.5,0.6-0.7,0.6S55,57,54.9,56.7c-1.1-3.2-2.9-6-5-8.5c-0.4-0.5-1-0.9-1.5-1.3
		c-1.6-1.2-3.3-2.3-4.9-3.5c-0.9-0.7-0.7-1.2,0.3-1.5c9.9-3.3,19.8-6.6,29.7-10C73.8,31.9,74,31.9,74.2,31.8z"/>
</g>
</svg>
