<?xml version="1.0" encoding="UTF-8" standalone="no"?>
<!-- Generator: Adobe Illustrator 22.0.1, SVG Export Plug-In . SVG Version: 6.00 Build 0)  -->

<svg
   version="1.1"
   id="Layer_1"
   x="0px"
   y="0px"
   viewBox="0 0 256 237.39996"
   xml:space="preserve"
   sodipodi:docname="MetaMask.svg"
   width="256"
   height="237.39996"
   inkscape:version="1.1.1 (3bf5ae0d25, 2021-09-20)"
   xmlns:inkscape="http://www.inkscape.org/namespaces/inkscape"
   xmlns:sodipodi="http://sodipodi.sourceforge.net/DTD/sodipodi-0.dtd"
   xmlns="http://www.w3.org/2000/svg"
   xmlns:svg="http://www.w3.org/2000/svg"><defs
   id="defs532" /><sodipodi:namedview
   id="namedview530"
   pagecolor="#ffffff"
   bordercolor="#666666"
   borderopacity="1.0"
   inkscape:pageshadow="2"
   inkscape:pageopacity="0.0"
   inkscape:pagecheckerboard="0"
   showgrid="false"
   width="256px"
   fit-margin-top="0"
   fit-margin-left="0"
   fit-margin-right="0"
   fit-margin-bottom="0"
   inkscape:zoom="1.2752788"
   inkscape:cx="146.6346"
   inkscape:cy="148.59496"
   inkscape:window-width="1280"
   inkscape:window-height="668"
   inkscape:window-x="0"
   inkscape:window-y="0"
   inkscape:window-maximized="1"
   inkscape:current-layer="Layer_1" />
<style
   type="text/css"
   id="style459">
	.st0{fill:#E2761B;stroke:#E2761B;stroke-linecap:round;stroke-linejoin:round;}
	.st1{fill:#E4761B;stroke:#E4761B;stroke-linecap:round;stroke-linejoin:round;}
	.st2{fill:#D7C1B3;stroke:#D7C1B3;stroke-linecap:round;stroke-linejoin:round;}
	.st3{fill:#233447;stroke:#233447;stroke-linecap:round;stroke-linejoin:round;}
	.st4{fill:#CD6116;stroke:#CD6116;stroke-linecap:round;stroke-linejoin:round;}
	.st5{fill:#E4751F;stroke:#E4751F;stroke-linecap:round;stroke-linejoin:round;}
	.st6{fill:#F6851B;stroke:#F6851B;stroke-linecap:round;stroke-linejoin:round;}
	.st7{fill:#C0AD9E;stroke:#C0AD9E;stroke-linecap:round;stroke-linejoin:round;}
	.st8{fill:#161616;stroke:#161616;stroke-linecap:round;stroke-linejoin:round;}
	.st9{fill:#763D16;stroke:#763D16;stroke-linecap:round;stroke-linejoin:round;}
</style>
<polygon
   class="st0"
   points="174.6,109.4 193,65.8 274.1,35.5 "
   id="polygon461"
   transform="translate(-31.300002,-35.000031)" />
<g
   id="g477"
   transform="translate(-31.300002,-35.000031)">
	<polygon
   class="st1"
   points="143.1,110.1 125.6,65.8 44.4,35.5 "
   id="polygon463" />
	<polygon
   class="st1"
   points="284.8,207.7 238.3,206.8 211.8,247.4 268.5,263 "
   id="polygon465" />
	<polygon
   class="st1"
   points="80.3,206.8 33.9,207.7 50.1,263 106.8,247.4 "
   id="polygon467" />
	<polygon
   class="st1"
   points="142.1,104.1 103.6,138.2 87.8,162.1 144.1,164.6 "
   id="polygon469" />
	<polygon
   class="st1"
   points="230.8,162.1 214.9,138.2 175.9,103.4 174.6,164.6 "
   id="polygon471" />
	<polygon
   class="st1"
   points="140.6,230.9 111.4,208.1 106.8,247.4 "
   id="polygon473" />
	<polygon
   class="st1"
   points="211.8,247.4 207.1,208.1 177.9,230.9 "
   id="polygon475" />
</g>
<g
   id="g483"
   transform="translate(-31.300002,-35.000031)">
	<polygon
   class="st2"
   points="180.3,262.3 211.8,247.4 177.9,230.9 180.6,253 "
   id="polygon479" />
	<polygon
   class="st2"
   points="140.6,230.9 106.8,247.4 138.3,262.3 138.1,253 "
   id="polygon481" />
</g>
<polygon
   class="st3"
   points="110.6,185.2 130.5,176.1 138.8,193.5 "
   id="polygon485"
   transform="translate(-31.300002,-35.000031)" />
<polygon
   class="st3"
   points="188,176.1 208,185.2 179.7,193.5 "
   id="polygon487"
   transform="translate(-31.300002,-35.000031)" />
<g
   id="g497"
   transform="translate(-31.300002,-35.000031)">
	<polygon
   class="st4"
   points="111.6,206.8 80.3,207.7 106.8,247.4 "
   id="polygon489" />
	<polygon
   class="st4"
   points="211.8,247.4 238.3,207.7 207,206.8 "
   id="polygon491" />
	<polygon
   class="st4"
   points="174.6,164.6 179.8,193.5 188.1,176.1 208.1,185.2 230.8,162.1 "
   id="polygon493" />
	<polygon
   class="st4"
   points="130.6,176.1 138.8,193.5 144.1,164.6 87.8,162.1 110.6,185.2 "
   id="polygon495" />
</g>
<g
   id="g507"
   transform="translate(-31.300002,-35.000031)">
	<polygon
   class="st5"
   points="111.4,208.1 110.6,185.2 87.8,162.1 "
   id="polygon499" />
	<polygon
   class="st5"
   points="207.1,208.1 230.8,162.1 208.1,185.2 "
   id="polygon501" />
	<polygon
   class="st5"
   points="146.9,182.7 144.1,164.6 138.8,193.5 145.4,227.6 "
   id="polygon503" />
	<polygon
   class="st5"
   points="179.8,193.5 174.6,164.6 171.9,182.6 173.1,227.6 "
   id="polygon505" />
</g>
<polygon
   class="st6"
   points="173.1,227.6 177.9,230.9 207.1,208.1 208.1,185.2 179.8,193.5 "
   id="polygon509"
   transform="translate(-31.300002,-35.000031)" />
<polygon
   class="st6"
   points="111.4,208.1 140.6,230.9 145.4,227.6 138.8,193.5 110.6,185.2 "
   id="polygon511"
   transform="translate(-31.300002,-35.000031)" />
<polygon
   class="st7"
   points="117.8,256.4 140.1,271.9 178.4,271.9 200.8,256.4 211.8,247.4 180.3,262.3 180.6,253 178.1,250.8 140.4,250.8 138.1,253 138.3,262.3 106.8,247.4 "
   id="polygon513"
   transform="translate(-31.300002,-35.000031)" />
<polygon
   class="st8"
   points="180.6,253 177.9,230.9 173.1,227.6 145.4,227.6 140.6,230.9 138.1,253 140.4,250.8 178.1,250.8 "
   id="polygon515"
   transform="translate(-31.300002,-35.000031)" />
<g
   id="g521"
   transform="translate(-31.300002,-35.000031)">
	<polygon
   class="st9"
   points="275.6,124.3 283.6,118.2 278.3,114.2 286.8,73.4 274.1,35.5 177.9,106.9 214.9,138.2 267.2,153.5 278.8,140 273.8,136.4 281.8,129.1 "
   id="polygon517" />
	<polygon
   class="st9"
   points="140.6,106.9 44.4,35.5 31.8,73.4 40.3,114.2 34.9,118.2 42.9,124.3 36.8,129.1 44.8,136.4 39.8,140 51.3,153.5 103.6,138.2 "
   id="polygon519" />
</g>
<polygon
   class="st6"
   points="214.9,138.2 230.8,162.1 207.1,208.1 238.3,207.7 284.8,207.7 267.2,153.5 "
   id="polygon523"
   transform="translate(-31.300002,-35.000031)" />
<polygon
   class="st6"
   points="51.3,153.5 33.9,207.7 80.3,207.7 111.4,208.1 87.8,162.1 103.6,138.2 "
   id="polygon525"
   transform="translate(-31.300002,-35.000031)" />
<polygon
   class="st6"
   points="177.9,106.9 193.1,65.8 125.6,65.8 140.6,106.9 144.1,164.6 145.3,182.8 145.4,227.6 173.1,227.6 173.3,182.8 174.6,164.6 "
   id="polygon527"
   transform="translate(-31.300002,-35.000031)" />
</svg>
