<?xml version="1.0" encoding="utf-8"?>
<!-- Generator: Adobe Illustrator 25.4.1, SVG Export Plug-In . SVG Version: 6.00 Build 0)  -->
<svg version="1.1" id="Capa_1" xmlns="http://www.w3.org/2000/svg" xmlns:xlink="http://www.w3.org/1999/xlink" x="0px" y="0px"
	 viewBox="0 0 29 37" style="enable-background:new 0 0 29 37;" xml:space="preserve">
<style type="text/css">
	.st0{clip-path:url(#SVGID_00000011017471149095784960000015383083813756550312_);fill:#FF9D00;}
	.st1{clip-path:url(#SVGID_00000173853781594008685540000013547971875470274216_);fill:#FFFFFF;}
</style>
<g>
	<g>
		<defs>
			<rect id="SVGID_1_" y="0" width="29" height="37"/>
		</defs>
		<clipPath id="SVGID_00000163072719562984193750000017970092357809820305_">
			<use xlink:href="#SVGID_1_"  style="overflow:visible;"/>
		</clipPath>
		<path id="Sustracción_12" style="clip-path:url(#SVGID_00000163072719562984193750000017970092357809820305_);fill:#FF9D00;" d="
			M4.8,36.2c-1,0-1.3-0.3-1.4-1.6C3.1,30,2.9,25.3,2.6,20.8c-0.1-1.7-0.2-3.4-0.3-5.2C2.2,14,2.1,12.4,2,10.8l0,0
			C1.9,10,1.9,9.2,1.8,8.4l0,0c0-0.5-0.1-1-0.1-1.5l0,0c0-1.2-0.1-2.4-0.2-3.6C1.4,2.8,1.5,2.4,1.8,2C2.1,1.7,2.6,1.5,3,1.5
			C7.5,1.2,12,1,16.5,0.7c2.1-0.1,4.3-0.3,6.5-0.4c0.4,0,0.7,0,1,0c1.2,0,1.2,0.4,1.3,2.1c0.6,9.1,1.2,18.8,1.9,30.5
			c0.1,1.7-0.1,1.9-1.8,2c-7.1,0.5-14.2,0.9-20.2,1.3C5.1,36.2,5,36.2,4.8,36.2z M9,22.1c-1,0-1.8,0.8-1.8,1.8c0,0.1,0,0.1,0,0.2
			v0.2c0.1,0.7,0.5,1.2,1.1,1.5c0.1,0,0.2,0.1,0.2,0.3c0,0.1,0,0.2-0.1,0.3c-0.6,0.4-0.9,1-0.8,1.7v0.2c0.1,0.9,0.8,1.6,1.8,1.6
			c0.1,0,0.1,0,0.2,0c0.8-0.1,1.4-0.6,1.5-1.4c0-0.1,0-0.1,0-0.2c0.1-0.5,0.2-0.9,0.7-1l6.5-0.7h0.1c0.5,0,0.7,0.4,0.8,0.8
			c0,0.1,0,0.1,0.1,0.2c0.4,0.9,1.4,1.3,2.3,0.9c0.7-0.3,1.1-1,1-1.8v-0.2c-0.1-0.7-0.5-1.2-1.1-1.5c-0.1,0-0.2-0.1-0.2-0.3
			c0-0.1,0-0.2,0.1-0.3c0.6-0.4,0.9-1,0.8-1.7v-0.2c-0.1-0.9-0.8-1.6-1.8-1.6c-0.1,0-0.1,0-0.2,0c-0.8,0.1-1.4,0.6-1.5,1.4
			c0,0.1,0,0.1,0,0.2c-0.1,0.5-0.2,0.9-0.7,1l-6.5,0.7h-0.1c-0.5,0-0.7-0.4-0.8-0.8c0-0.1,0-0.1-0.1-0.2C10.3,22.5,9.7,22.1,9,22.1z
			 M14.2,7L14.2,7c-0.3,0-0.6,0-0.9,0C10.5,7.3,8,8.7,6.4,11c-0.8,1.1-1.5,2.3-1.9,3.6c0.6,1.1,1.4,2,2.3,2.9
			c1.8,1.8,4.2,2.8,6.7,2.9c0.4,0,0.8,0,1.2-0.1c2.8-0.4,5.3-1.9,6.9-4.2c0.8-1.1,1.4-2.3,1.8-3.5c-0.6-1-1.4-2-2.3-2.8
			C19.2,8,16.7,7,14.2,7L14.2,7z M3.6,5.2L3.6,5.2c0,0,1.6,3,1.6,3.1L6.8,7L6.6,6.9C4.2,5.6,3.7,5.3,3.6,5.2L3.6,5.2L3.6,5.2z
			 M22.9,3.6L22.9,3.6L22.9,3.6c-0.1,0.1-2.8,2.1-2.9,2.2L21.7,7C21.8,6.8,22.9,3.7,22.9,3.6L22.9,3.6z M13.4,2.2L13.4,2.2
			c0,0.1-1.4,3.4-1.4,3.4l3-0.3C15,5.2,13.5,2.2,13.4,2.2L13.4,2.2z"/>
	</g>
	<g>
		<defs>
			<rect id="SVGID_00000011724007611390694040000011290004616705909951_" y="0" width="29" height="37"/>
		</defs>
		<clipPath id="SVGID_00000124146277495852004180000012084155472116998815_">
			<use xlink:href="#SVGID_00000011724007611390694040000011290004616705909951_"  style="overflow:visible;"/>
		</clipPath>
		
			<path id="Icon_material-remove-red-eye" style="clip-path:url(#SVGID_00000124146277495852004180000012084155472116998815_);fill:#FFFFFF;" d="
			M13.5,8.4c-3.4,0.4-6.2,2.8-7.1,6c2.1,4.1,7.1,5.7,11.2,3.5c2-1.1,3.6-2.9,4.2-5.2C20.2,9.8,16.9,8,13.5,8.4z M14.5,17.1
			c-1.9,0.2-3.7-1.2-3.9-3.1s1.2-3.7,3.1-3.9s3.7,1.2,3.9,3.1l0,0C17.8,15.2,16.4,16.9,14.5,17.1z"/>
	</g>
</g>
<path d="M13.9,11.5c-1.2,0.1-2,1.2-1.9,2.3s1.2,2,2.3,1.9c1.2-0.1,2-1.2,1.9-2.3C16.1,12.3,15,11.4,13.9,11.5L13.9,11.5z"/>
</svg>
