<?xml version="1.0" encoding="utf-8"?>
<!-- Generator: Adobe Illustrator 25.4.1, SVG Export Plug-In . SVG Version: 6.00 Build 0)  -->
<svg version="1.1" id="Capa_1" focusable="false" xmlns="http://www.w3.org/2000/svg" xmlns:xlink="http://www.w3.org/1999/xlink"
	 x="0px" y="0px" viewBox="0 0 111.3 124" style="enable-background:new 0 0 111.3 124;" xml:space="preserve">
<style type="text/css">
	.st0{opacity:0.5;}
	.st1{fill:#010101;}
	.st2{fill:#B66A2A;}
	.st3{fill:#BABABA;}
	.st4{fill:#FE943A;}
	.st5{fill:#FEC494;}
	.st6{fill:#FD943A;}
	.st7{fill:#FEFEFD;}
</style>
<g class="st0">
	<path d="M93.2,78c0,1.1,0,2.3,0,3.4c0,0.5-0.1,0.7-0.6,0.6c-0.2,0-0.3,0-0.5,0c-16.7,0-33.3,0-50,0c-0.9,0-1.2-0.2-1.1-1.1
		c0.1-1,0-1.9,0-2.9c0,0,0.1-0.1,0.1-0.1c0.3-0.2,0.6-0.2,1-0.2c5,0,10,0,15,0c1.9-0.1,3.9,0,5.8,0c9.5,0,18.9,0,28.4,0
		c0.6,0,1.2-0.1,1.8,0.2C93.1,78,93.2,78,93.2,78z"/>
	<path d="M33,66c-1,0-2.1-0.1-3.1,0c-0.8,0.1-0.9-0.2-0.9-0.9c0-6.9,0-13.8,0-20.7c0-0.8-0.4-1.9,0.2-2.4c0.5-0.4,1.5-0.1,2.3-0.1
		c0.5,0,1,0,1.5,0c0,0,0.1,0.1,0.1,0.1c0.2,0.4,0.2,0.9,0.2,1.4c0,2.2,0,4.4,0,6.5c0.1,5,0,9.9,0,14.9c0,0.3,0,0.7-0.2,1
		C33.1,65.9,33,65.9,33,66z"/>
	<path d="M61.1,9.8c6.7,0,13.4,0,20.1,0c0,0,0.1,0.1,0.1,0.1c0.2,1.3,0.4,2.7-0.2,4c-0.5,0.3-1,0.2-1.5,0.2c-5.7,0-11.4,0-17.1,0
		c-0.5,0-1,0-1.5-0.2c-0.7-1.3-0.4-2.6-0.2-4C61,9.9,61,9.8,61.1,9.8z"/>
	<path d="M105.3,41.9c1.1,0,2.3,0,3.4,0c0.5,0,0.6,0.1,0.6,0.6c0,6.3,0,12.6,0,18.9c0,0.5-0.2,0.6-0.6,0.6c-1.1,0-2.3,0-3.4,0
		c0,0-0.1-0.1-0.1-0.1c-0.2-0.3-0.2-0.6-0.2-1c0-4.9,0-9.9,0-14.8c0.1-1.3-0.2-2.7,0.2-4C105.2,42,105.2,41.9,105.3,41.9z"/>
	<path d="M41,25.8c0-3.7,0-7.5,0-11.2c0-0.7,0.2-0.9,0.8-0.8c1.1,0.1,2.1,0,3.2,0c0,0,0.1,0.1,0.1,0.1c0.2,0.4,0.2,0.8,0.2,1.2
		c0,3.1,0,6.3,0,9.4c0,0.4,0,0.9-0.2,1.3c-1.3,0.6-2.6,0.4-4,0.2C41.1,25.9,41,25.9,41,25.8z"/>
	<path d="M97.2,17.8c1.1,0,2.1,0,3.2,0c0.7,0,0.8,0.2,0.8,0.8c0,3.7,0,7.5,0,11.2c0,0-0.1,0.1-0.1,0.1c-1.3,0.3-2.5,0.3-3.8,0
		c-0.1-0.1-0.2-0.2-0.2-0.3c-0.1-0.4-0.1-0.8-0.1-1.2c0-3.1,0-6.2,0-9.3c0-0.4,0-0.9,0.2-1.3C97.1,17.9,97.2,17.8,97.2,17.8z"/>
	<path d="M101.3,29.8c1.1,0,2.1,0,3.2,0c0.7,0,0.8,0.2,0.8,0.8c0,3.7,0,7.5,0,11.2c0,0,0,0,0,0c-1.4,0.5-2.7,0.5-4.1,0
		c-0.3-0.4-0.3-0.9-0.3-1.4c0-3.1,0-6.1,0-9.2C100.9,30.8,100.9,30.2,101.3,29.8L101.3,29.8z"/>
	<path d="M49,5.7c0-1.1,0-2.3,0-3.4c0-0.5,0.1-0.6,0.6-0.6c2.3,0,4.5,0,6.8,0c0.5,0,0.6,0.2,0.6,0.6c0,1.1,0,2.3,0,3.4
		c0,0-0.1,0.1-0.1,0.1C55.7,6.2,54.4,6,53.1,6c-1.3,0-2.7,0.2-4-0.2C49.1,5.8,49.1,5.8,49,5.7z"/>
	<path d="M45,13.8c0-2.4,0-4.9,0-7.3c0-0.6,0.2-0.8,0.7-0.7c1.1,0,2.2,0,3.3,0c0,0,0,0,0,0c0.3,0.3,0.3,0.7,0.3,1.1
		c0,1.9,0,3.9,0,5.8c0,1.2-0.3,1.4-1.4,1.4C46.9,14.1,45.9,14.4,45,13.8L45,13.8z"/>
	<path d="M93.2,9.8c1.1,0,2.2,0,3.3,0c0.6,0,0.7,0.1,0.7,0.7c0,2.4,0,4.9,0,7.3l0,0c-1.2,0.6-2.5,0.3-3.7,0.2
		c-0.5-0.1-0.6-0.6-0.6-1c0-1-0.1-2.1,0-3.1c0.1-1.3-0.2-2.7,0.2-4C93.1,9.9,93.2,9.8,93.2,9.8z"/>
	<path d="M37,33.9c0-2.4,0-4.9,0-7.3c0-0.6,0.2-0.8,0.7-0.7c1.1,0,2.2,0,3.3,0c0,0,0,0,0,0c0.3,0.4,0.3,0.8,0.3,1.2
		c0,1.9,0,3.7,0,5.6c0,1.3-0.2,1.5-1.5,1.5c-0.9,0-1.8,0.2-2.7-0.2C37.1,33.9,37,33.9,37,33.9z"/>
	<path d="M105.3,62c0,2.4,0,4.8,0,7.3c0,0.6-0.1,0.8-0.8,0.8c-1.1-0.1-2.2,0-3.3,0c0,0-0.1-0.1-0.1-0.1c-0.3-1.3-0.1-2.6-0.2-4
		c-0.1-1,0-2,0-3c0-0.8,0.4-1.3,1.2-1.2C103.2,61.7,104.3,61.4,105.3,62L105.3,62z"/>
	<path d="M37,74c-1.1,0-2.2,0-3.3,0c-0.6,0-0.7-0.2-0.7-0.7c0-2.4,0-4.9,0-7.3c0,0,0,0,0,0c1.2-0.6,2.5-0.3,3.7-0.2
		c0.4,0,0.6,0.4,0.6,0.7c0,2.5,0.3,4.9-0.1,7.4C37.1,73.9,37,74,37,74z"/>
	<path d="M33,41.9c0-2.4,0-4.9,0-7.3c0-0.6,0.2-0.8,0.7-0.7c1.1,0,2.2,0,3.3,0l0,0c0.3,0.3,0.3,0.7,0.3,1.1c0,1.9,0,3.9,0,5.8
		c0,1.2-0.3,1.4-1.4,1.4C34.9,42.2,33.9,42.5,33,41.9L33,41.9z"/>
	<path class="st1" d="M85.2,5.7c0-1.1,0-2.3,0-3.4c0-0.5,0.1-0.7,0.6-0.6c0,0,0.1,0,0.1,0c1.1,0,2.5-0.4,3.1,0.2
		c0.7,0.6,0.1,2,0.2,3.1c0,0.3,0,0.5,0,0.8c0,0-0.1,0.1-0.1,0.1c-1.2,0.3-2.5,0.3-3.7,0C85.3,5.8,85.2,5.8,85.2,5.7z"/>
	<path class="st1" d="M57.1,5.7c1.1,0,2.2,0,3.4,0c0.5,0,0.7,0.1,0.7,0.7c0,1.1,0,2.2,0,3.4c0,0,0,0,0,0c-1.2,0.6-2.5,0.3-3.7,0.2
		c-0.3,0-0.5-0.2-0.5-0.5C56.7,8.2,56.5,6.9,57.1,5.7L57.1,5.7z"/>
	<path class="st1" d="M81.2,9.8c0-1.1,0-2.3,0-3.4c0-0.5,0.1-0.6,0.6-0.6c1.1,0,2.3,0,3.4,0l0,0c0.6,1.2,0.3,2.5,0.2,3.7
		c0,0.3-0.2,0.5-0.5,0.5C83.6,10.1,82.4,10.3,81.2,9.8L81.2,9.8z"/>
	<path class="st1" d="M89.2,5.7c1.1,0,2.2,0,3.4,0c0.5,0,0.7,0.1,0.7,0.7c0,1.1,0,2.2,0,3.4c0,0,0,0,0,0c-1.2,0.6-2.5,0.3-3.7,0.2
		c-0.3,0-0.5-0.2-0.5-0.5C88.9,8.2,88.6,6.9,89.2,5.7L89.2,5.7z"/>
	<path class="st1" d="M101.2,70c0,1.1,0,2.2,0,3.4c0,0.5-0.1,0.7-0.7,0.7c-1.1,0-2.2,0-3.4,0c0,0-0.1-0.1-0.1-0.1
		c-0.3-1.3-0.2-2.5,0-3.8c0.1-0.1,0.2-0.2,0.3-0.3C98.7,69.7,100,69.4,101.2,70L101.2,70z"/>
	<path class="st1" d="M41,78c-1.1,0-2.3,0-3.4,0c-0.5,0-0.6-0.1-0.6-0.6c0-1.1,0-2.3,0-3.4c0,0,0,0,0,0c1.2-0.6,2.5-0.3,3.7-0.2
		c0.3,0,0.5,0.2,0.5,0.5C41.3,75.6,41.6,76.9,41,78L41,78z"/>
	<path class="st1" d="M97.2,74c0,1.1,0,2.2,0,3.4c0,0.5-0.1,0.7-0.7,0.7c-1.1,0-2.2,0-3.4,0c0,0,0,0,0,0c-0.6-1.3-0.3-2.6-0.2-3.9
		c0.1-0.1,0.1-0.2,0.3-0.3C94.6,73.7,96,73.5,97.2,74L97.2,74z"/>
	<path class="st2" d="M41,78.1c0-1.1,0-2.3,0-3.4c0-0.5-0.2-0.6-0.6-0.6c-1.1,0-2.3,0-3.4,0c0-2.4,0-4.8,0-7.2
		c0-0.6-0.2-0.9-0.8-0.9C35.1,66,34,66,33,66c0-5.4,0-10.7,0-16.1c1.2-0.6,2.4-0.3,3.6-0.2c0.4,0,0.5,0.4,0.6,0.7
		c0.1,0.4,0.1,0.8,0.1,1.2c0,2.2-0.1,2,2,2c0.3,0,0.5,0,0.8,0c0.8,0,1.2,0.4,1.2,1.2c0,0.5,0,1.1,0,1.6c0,1.1,0.1,1.2,1.2,1.2
		c1.7,0,3.4,0,5.1,0c0.5,0,1-0.1,1.4,0.3c0.3,0.4,0.3,0.9,0.3,1.4c0,1.7,0,3.5,0,5.2c0,0.8,0.3,1.2,1.1,1.1c0.5,0,0.9,0,1.4,0
		c1.2,0,1.5,0.3,1.5,1.5c0,1.7,0,3.4,0,5.1c0,1.4,0.1,1.4,1.4,1.4c2.6,0,2.6,0,2.6,2.7c0,0.6,0.1,1.1-0.3,1.6
		C51.7,78,46.4,78,41,78.1z"/>
	<path class="st3" d="M57.1,78c0-1-0.1-2,0-3c0.1-0.8-0.3-1-1-1c-0.7,0.1-1.3,0-2,0c-0.8,0.1-1-0.2-1-1c0.1-2,0-4.1,0-6.1
		c0-0.7-0.2-1-1-1c-0.8,0.1-1.5,0-2.3,0c-0.6,0-0.8-0.2-0.8-0.8c0-2.4,0-4.8,0-7.2c0,0,0.1-0.1,0.1-0.1c1.1-0.4,2.3-0.2,3.4-0.1
		c0.6,0,0.8,0.5,0.8,1c0.1,0.7,0,1.4,0,2.1c0,0.6,0.3,0.8,0.9,0.9c0.6,0,1.2,0,1.8,0c1.1,0.1,1.3,0.3,1.3,1.3c0,1.8,0,3.6,0,5.4
		c0,1.2,0.1,1.2,1.3,1.3c0.5,0,1.1,0,1.6,0c0.7,0,1.1,0.4,1.1,1.1c0,0.6,0,1.1,0,1.7c0,0.8,0.3,1.2,1.1,1.1c0.3,0,0.7,0,1,0
		c9.3,0,18.7,0,28,0c0.6,0,1.2-0.1,1.7,0.3c0,1.3,0,2.7,0,4c-11.7,0-23.3,0-35,0C57.9,78.1,57.5,78,57.1,78z"/>
	<path class="st4" d="M49,58c-2.3,0-4.7,0-7,0c-0.8,0-1.1-0.3-1-1c0.1-0.8,0-1.5,0-2.3c0-0.5-0.2-0.7-0.7-0.7c-0.8,0-1.7,0-2.5,0
		c-0.6,0-0.9-0.2-0.8-0.8c0-0.8,0-1.5,0-2.3c0.1-0.8-0.3-1-1-0.9c-1,0.1-2,0-3,0c0-2.7,0-5.4,0-8c1.1,0,2.2,0,3.3,0
		c0.6,0,0.7-0.2,0.7-0.7c0-2.4,0-4.9,0-7.3c1.1,0,2.2,0,3.3,0c0.6,0,0.7-0.2,0.7-0.7c0-2.4,0-4.9,0-7.3c1.3,0,2.7,0,4,0
		c0.8-0.5,1.6-0.2,2.4-0.3c1.2-0.1,1.2-0.1,1.3-1.3c0-0.4,0-0.9,0-1.3c0-1.2,0.3-1.4,1.5-1.5c0.4,0,0.8,0,1.2,0
		c1.2,0,1.3-0.1,1.3-1.3c0-0.5,0-1.1,0-1.6c0-0.7,0.4-1,1.1-1.1c0.7,0,1.3,0,2,0c0.6,0,0.9-0.3,0.9-0.9c0-0.7,0-1.3,0-2
		c0-0.5,0.2-0.9,0.7-1c1.2-0.1,2.5-0.4,3.6,0.2c6.7,0,13.4,0,20.1,0c0.4-0.3,0.9-0.3,1.3-0.3c3.1,0,6.2,0,9.4,0
		c0.5,0,0.9-0.1,1.3,0.3c0,1.1,0,2.3,0,3.4c0,0.5,0.2,0.6,0.6,0.6c1.1,0,2.3,0,3.4,0c0,4,0,8,0,12.1c-0.7,0.5-1.5,0.3-2.3,0.3
		c-0.6,0-1.1,0-1.7,0c-2.1,0-4.2,0-6.3,0c-1.4,0-1.4,0-1.4,1.5c0,1.6,0,3.1,0,4.7c0,1.1,0.1,1.2,1.2,1.2c2.2,0,4.3,0,6.5,0
		c0.9,0,1.7,0,2.6,0c0.8,0,1.1-0.3,1.1-1.1c0-1.7,0-3.5,0-5.2c0-0.5,0-1,0.3-1.4c1.3,0,2.7,0,4,0c0,4,0,8,0,12.1
		c0,0-0.1,0.1-0.1,0.1c-0.5,0.2-1,0.2-1.6,0.2c-4.2,0-8.4,0-12.5,0c-1.4,0-1.5,0.1-1.5,1.5c0,1.9,0,1.9,1.9,1.9c0.3,0,0.5,0,0.8,0
		c1,0.1,1.2,0.3,1.3,1.3c0,2,0,4.1,0,6.1c0,0.3,0,0.7-0.3,1c-0.3,0.3-0.7,0.3-1.1,0.3c-1.9,0-3.8,0-5.7,0c-1.3,0-1.5-0.3-1.5-1.6
		c0-0.5,0-0.9,0-1.4c0-0.8-0.3-1.1-1.1-1.1c-1.7,0-3.5,0-5.2,0c-1.5,0-1.7-0.2-1.7-1.7c0-2.6,0.3-2.3-2.4-2.3c-5.2,0-10.3,0-15.5,0
		c-1.6,0-1.6,0-1.6,1.6c0,2.4,0,2.4-2.4,2.5c-1.6,0-1.6,0-1.6,1.5c0,1.6,0,3.2,0,4.8C49.3,57.1,49.4,57.6,49,58L49,58z"/>
	<path class="st5" d="M61.1,13.7c-1,0-2.1,0.1-3.1,0c-0.8,0-1,0.3-0.9,1c0.1,0.8,0,1.5,0,2.3c0,0.6-0.2,0.8-0.7,0.8
		c-0.8,0-1.7,0-2.5,0c-0.6,0-0.8,0.2-0.8,0.8c0,0.8,0,1.5,0,2.3c0,0.7-0.2,1-0.9,0.9c-0.8-0.1-1.6,0-2.4,0c-0.6,0-0.8,0.2-0.7,0.8
		c0,0.8,0,1.6,0,2.4c0,0.6-0.2,0.9-0.8,0.9c-1.1-0.1-2.1,0-3.2,0c0-4,0-8,0-12c1.1,0,2.2,0,3.3,0c0.6,0,0.7-0.2,0.7-0.7
		c0-2.4,0-4.9,0-7.3c2.7,0,5.4,0,8.1,0c0,1.1,0,2.3,0,3.4c0,0.5,0.1,0.6,0.6,0.6c1.1,0,2.3,0,3.4,0C61.1,11.1,61.1,12.4,61.1,13.7z"
		/>
	<path class="st5" d="M93.2,13.8c-4,0-8,0-12,0c0-1.3,0-2.7,0-4c1.1,0,2.3,0,3.4,0c0.5,0,0.6-0.1,0.6-0.6c0-1.1,0-2.3,0-3.4
		c1.3,0,2.7,0,4,0c0,1.1,0,2.3,0,3.4c0,0.5,0.1,0.6,0.6,0.6c1.1,0,2.3,0,3.4,0C93.2,11.1,93.2,12.4,93.2,13.8z"/>
	<path class="st5" d="M49.1,58c0-2.4,0-4.9-0.1-7.3c0-0.6,0.3-0.7,0.8-0.7c0.8,0,1.7,0,2.5,0c0.6,0,0.8-0.2,0.7-0.8
		c0-0.8,0-1.5,0-2.3c-0.1-0.7,0.2-1,1-1c2.9,0,5.9,0,8.8,0c3.1,0,6.3,0,9.4,0c0.7,0,1,0.2,0.9,0.9c-0.1,0.7,0,1.4,0,2.1
		c-0.1,0.8,0.2,1.1,1,1c2-0.1,4.1,0,6.1,0c0.8,0,1.1,0.2,0.9,1c0,0,0,0.1,0,0.1c0.1,1-0.4,2.2,0.2,2.8c0.6,0.6,1.9,0.2,2.8,0.2
		c1.7,0,3.3,0,5,0c1.2-0.5,2.4-0.3,3.6-0.2c0.3,0,0.6,0.3,0.6,0.6c0.1,1.2,0.3,2.4-0.2,3.6c-0.5,0.4-1.1,0.4-1.6,0.4
		c-5.5,0-11,0-16.6,0c-1.6,0-1.6,0-1.6,1.6c0,1.7,0,1.7,1.8,1.7c5.4,0,10.8,0,16.2,0c1.5,0,1.5,0,1.5-1.5c0-0.7-0.2-1.5,0.3-2.1
		c0.7-0.6,1.6-0.3,2.4-0.3c1.2-0.1,1.3-0.1,1.3-1.3c0-0.5,0-1.1,0-1.6c0-0.7,0.4-1.1,1.1-1.1c0.5,0,1,0,1.5,0c1.3,0,1.4,0,1.4-1.4
		c0-1.7,0-3.3,0-5c0-0.5,0-0.9,0.3-1.3c1.3-0.4,2.7-0.5,4,0.1c0,4.8,0,9.6,0,14.4c0,0.6,0,1.1,0,1.7c-1.1,0-2.2,0-3.3,0
		c-0.6,0-0.8,0.1-0.7,0.7c0,1.1,0,2.2,0,3.3c-0.4,0.4-0.9,0.3-1.4,0.3c-2.5,0-2.2-0.3-2.3,2.3c0,0.5,0,1-0.3,1.4l0,0
		c-0.8,0.5-1.6,0.3-2.4,0.3c-1.2,0-1.3,0.1-1.3,1.3c0,0.8,0.2,1.7-0.3,2.4c0,0,0,0,0,0c-10.3,0-20.6,0-30.9,0c-1,0-1.3-0.2-1.3-1.3
		c0.1-0.9,0.4-2-0.2-2.6c-0.6-0.5-1.7-0.1-2.5-0.2c-1.3,0-1.3,0-1.3-1.3c0-2,0-3.9,0-5.9c0-0.6-0.2-0.8-0.8-0.8c-0.8,0-1.5,0-2.3,0
		c-0.7,0-1-0.2-0.9-0.9c0.1-0.8,0-1.5,0-2.3c0-0.7-0.2-0.9-0.9-0.8C51.1,58,50.1,58,49.1,58z"/>
	<path class="st6" d="M105.2,45.9c-1.3,0-2.6,0-3.9,0c-0.6-1.3-0.5-2.7,0-4c0,0,0,0,0,0c1.3,0,2.7,0,4,0
		C105.3,43.2,105.3,44.6,105.2,45.9z"/>
	<path class="st3" d="M97.2,70c0-1,0-2.1,0-3.1c0-0.8,0.3-1,1-0.9c1,0.1,2,0,3,0c0,1.3,0,2.7,0.1,4C99.9,70,98.6,70,97.2,70z"/>
	<path class="st3" d="M93.2,74.1c0-1.1,0-2.2,0-3.3c0-0.6,0.2-0.8,0.8-0.8c1.1,0,2.2,0,3.3,0c0,1.3,0,2.7,0,4
		C95.9,74,94.6,74.1,93.2,74.1z"/>
	<path d="M101.3,41.9c0,1.3,0,2.7,0,4c0,2.4,0,4.8,0,7.2c0,0.6-0.1,0.9-0.8,0.8c-0.9-0.1-1.7,0-2.6,0c-0.5,0-0.6,0.1-0.6,0.6
		c0,0.9,0,1.7,0,2.6c0,0.7-0.2,0.8-0.8,0.8c-1.1-0.1-2.1,0-3.2,0l0,0c0-1.1,0-2.2,0-3.3c0-0.6-0.1-0.8-0.7-0.7c-1.1,0-2.2,0-3.3,0
		c0-2.4,0-4.8,0-7.2c0-0.6-0.1-0.8-0.8-0.8c-0.7,0.1-1.5-0.1-2.2,0c-0.9,0.1-1.1-0.3-1.1-1.1c0.1-0.9-0.3-2.2,0.2-2.7
		c0.5-0.6,1.8-0.2,2.8-0.2C92.5,41.9,96.9,41.9,101.3,41.9z"/>
	<path d="M69.1,41.9c-2.5,0-4.9,0-7.4,0c-0.5,0-0.6-0.1-0.6-0.6c0-2.3,0-4.5,0-6.8c0-0.5,0.2-0.6,0.6-0.6c2.5,0,4.9,0,7.4,0
		c0.3,0.3,0.3,0.7,0.3,1c0,2,0,3.9,0,5.9C69.4,41.2,69.4,41.6,69.1,41.9z"/>
	<path d="M93.2,37.8c-2.5,0-4.9,0-7.4,0c-0.5,0-0.6-0.1-0.6-0.6c0-2.3,0-4.5,0-6.8c0-0.5,0.2-0.6,0.6-0.6c2.5,0,4.9,0,7.4,0
		c0.3,0.3,0.3,0.7,0.3,1c0,2,0,3.9,0,5.9C93.5,37.2,93.5,37.6,93.2,37.8z"/>
	<path class="st7" d="M69.1,41.9c0-2.7,0-5.3,0-8c1.1,0,2.2,0,3.3,0c0.5,0,0.7,0.1,0.7,0.7c0,2.2,0,4.5,0,6.7c0,0.6-0.2,0.7-0.7,0.7
		C71.3,41.9,70.2,41.9,69.1,41.9z"/>
	<path class="st7" d="M93.2,37.8c0-2.7,0-5.3,0-8c1.3,0,2.7,0,4,0c0,0,0,0,0,0c0,2.4,0,4.8,0,7.2c0,0.6-0.2,0.9-0.8,0.9
		C95.4,37.8,94.3,37.8,93.2,37.8z"/>
	<path d="M93.2,57.9c0,1.1,0,2.3,0,3.4c0,0.5-0.1,0.6-0.6,0.6c-6.3,0-12.6,0-18.9,0c-0.5,0-0.6-0.1-0.6-0.6c0-0.9,0.1-1.7,0-2.6
		c-0.1-0.7,0.2-0.8,0.9-0.8C80.4,58,86.8,58,93.2,57.9C93.2,58,93.2,57.9,93.2,57.9z"/>
</g>
<g>
	<path d="M78,118.9c0,1.3,0,2.7,0,4c0,0.6-0.2,0.8-0.7,0.7c-0.2,0-0.4,0-0.6,0c-19.4,0-38.8,0-58.2,0c-1.1,0-1.4-0.2-1.3-1.3
		c0.1-1.1,0-2.3,0-3.4c0.1-0.1,0.1-0.1,0.2-0.2c0.4-0.2,0.7-0.2,1.1-0.2c5.8,0,11.6,0,17.4,0c2.3-0.1,4.5,0,6.8,0
		c11,0,22.1,0,33.1,0c0.7,0,1.4-0.1,2.1,0.2C77.9,118.8,77.9,118.8,78,118.9z"/>
	<path d="M7.8,104.8c-1.2,0-2.4-0.1-3.6,0c-0.9,0.1-1.1-0.2-1.1-1.1c0-8,0-16.1,0-24.1c0-1-0.4-2.2,0.2-2.8c0.6-0.5,1.8-0.1,2.7-0.2
		c0.6,0,1.2,0,1.8,0c0,0.1,0.1,0.1,0.2,0.2c0.3,0.5,0.2,1.1,0.2,1.6c0,2.5,0,5.1,0,7.6c0.1,5.8,0,11.6,0,17.4c0,0.4,0,0.8-0.2,1.1
		C7.9,104.7,7.8,104.8,7.8,104.8z"/>
	<path d="M40.5,39.3c7.8,0,15.6,0,23.4,0c0,0.1,0.1,0.1,0.1,0.2c0.2,1.5,0.5,3.1-0.2,4.6c-0.5,0.3-1.1,0.3-1.7,0.3
		c-6.6,0-13.3,0-19.9,0c-0.6,0-1.2,0.1-1.7-0.2c-0.8-1.5-0.4-3.1-0.2-4.6C40.4,39.4,40.5,39.4,40.5,39.3z"/>
	<path d="M92,76.8c1.3,0,2.7,0,4,0c0.6,0,0.7,0.2,0.7,0.7c0,7.3,0,14.7,0,22c0,0.6-0.2,0.7-0.7,0.7c-1.3,0-2.6,0-4,0
		c0-0.1-0.1-0.1-0.2-0.2c-0.2-0.4-0.2-0.7-0.2-1.1c0-5.8,0-11.5,0-17.3c0.1-1.5-0.2-3.1,0.2-4.6C91.9,76.9,92,76.8,92,76.8z"/>
	<path d="M17.2,58c0-4.4,0-8.7,0-13.1c0-0.8,0.2-1,1-1c1.2,0.1,2.5,0,3.7,0c0,0.1,0.1,0.1,0.2,0.2c0.2,0.4,0.2,0.9,0.2,1.4
		c0,3.7,0,7.3,0,11c0,0.5,0,1-0.3,1.5c-1.5,0.7-3.1,0.4-4.6,0.2C17.3,58.1,17.2,58.1,17.2,58z"/>
	<path d="M82.7,48.7c1.2,0,2.5,0,3.7,0c0.8,0,1,0.2,1,1c0,4.4,0,8.7,0,13.1c-0.1,0-0.1,0.1-0.2,0.1c-1.5,0.3-3,0.3-4.4,0
		c-0.1-0.1-0.2-0.2-0.3-0.3c-0.2-0.4-0.2-0.9-0.2-1.4c0-3.6,0-7.2,0-10.8c0-0.5,0-1,0.2-1.5C82.6,48.8,82.6,48.7,82.7,48.7z"/>
	<path d="M87.3,62.7c1.2,0,2.5,0,3.7,0c0.8,0,1,0.2,1,1c0,4.4,0,8.7,0,13.1c0,0,0,0,0,0c-1.6,0.6-3.2,0.6-4.7,0
		c-0.4-0.5-0.3-1.1-0.3-1.7c0-3.6,0-7.2,0-10.7C87,63.8,86.9,63.2,87.3,62.7L87.3,62.7z"/>
	<path d="M26.5,34.6c0-1.3,0-2.6,0-4c0-0.6,0.2-0.7,0.7-0.7c2.6,0,5.3,0,7.9,0c0.6,0,0.7,0.2,0.7,0.7c0,1.3,0,2.6,0,4
		c-0.1,0-0.1,0.1-0.2,0.1c-1.4,0.4-2.9,0.2-4.4,0.2c-1.5,0-3.1,0.2-4.6-0.2C26.6,34.7,26.6,34.7,26.5,34.6z"/>
	<path d="M21.8,44c0-2.8,0-5.7,0-8.5c0-0.7,0.2-0.9,0.8-0.8c1.3,0.1,2.6,0,3.9,0c0,0,0,0,0,0c0.3,0.4,0.4,0.8,0.4,1.3
		c0,2.3,0,4.5,0,6.8c0,1.4-0.3,1.7-1.7,1.7C24.1,44.3,22.9,44.7,21.8,44L21.8,44z"/>
	<path d="M78,39.3c1.3,0,2.6,0,3.9,0c0.7,0,0.9,0.2,0.9,0.8c0,2.8,0,5.7,0,8.5l0,0c-1.4,0.7-2.9,0.4-4.3,0.2
		c-0.6-0.1-0.7-0.7-0.7-1.2c0-1.2-0.1-2.4,0-3.6c0.1-1.5-0.2-3.1,0.2-4.6C77.9,39.4,77.9,39.4,78,39.3z"/>
	<path d="M12.5,67.4c0-2.8,0-5.7,0-8.5c0-0.7,0.2-0.9,0.8-0.8c1.3,0.1,2.6,0,3.9,0c0,0,0,0,0,0c0.4,0.4,0.4,0.9,0.4,1.4
		c0,2.2,0,4.3,0,6.5c0,1.5-0.3,1.8-1.8,1.8c-1,0-2.1,0.2-3.1-0.2C12.6,67.5,12.5,67.5,12.5,67.4z"/>
	<path d="M92,100.1c0,2.8,0,5.6,0,8.5c0,0.7-0.1,1-0.9,0.9c-1.3-0.1-2.6,0-3.8,0c0-0.1-0.1-0.1-0.1-0.2c-0.4-1.5-0.1-3.1-0.2-4.6
		c-0.1-1.2,0-2.3,0-3.5c0-0.9,0.5-1.5,1.4-1.4C89.6,99.9,90.9,99.5,92,100.1L92,100.1z"/>
	<path d="M12.5,114.2c-1.3,0-2.6,0-3.9,0c-0.7,0-0.9-0.2-0.8-0.8c0-2.8,0-5.7,0-8.5c0,0,0,0,0,0c1.4-0.7,2.9-0.4,4.3-0.2
		c0.4,0,0.7,0.4,0.7,0.9c0,2.9,0.3,5.7-0.1,8.6C12.6,114.1,12.5,114.1,12.5,114.2z"/>
	<path d="M7.8,76.8c0-2.8,0-5.7,0-8.5c0-0.7,0.2-0.9,0.8-0.8c1.3,0.1,2.6,0,3.9,0l0,0c0.3,0.4,0.4,0.8,0.4,1.3c0,2.3,0,4.5,0,6.8
		c0,1.4-0.3,1.7-1.7,1.7C10,77.1,8.8,77.4,7.8,76.8L7.8,76.8z"/>
	<path class="st1" d="M68.6,34.6c0-1.3,0-2.6,0-4c0-0.6,0.1-0.8,0.7-0.7c0,0,0.1,0,0.1,0c1.2,0,2.9-0.4,3.6,0.2
		c0.8,0.6,0.2,2.3,0.2,3.6c0,0.3,0,0.6,0,0.9c-0.1,0-0.1,0.1-0.2,0.1c-1.4,0.3-2.9,0.3-4.3,0C68.8,34.7,68.7,34.7,68.6,34.6z"/>
	<path class="st1" d="M35.9,34.6c1.3,0,2.6,0,3.9,0c0.6,0,0.8,0.2,0.8,0.8c0,1.3,0,2.6,0,3.9c0,0,0,0,0,0c-1.4,0.7-2.9,0.4-4.3,0.3
		c-0.3,0-0.6-0.3-0.6-0.6C35.5,37.5,35.2,36,35.9,34.6L35.9,34.6z"/>
	<path class="st1" d="M64,39.3c0-1.3,0-2.7,0-4c0-0.6,0.2-0.7,0.7-0.7c1.3,0,2.7,0,4,0l0,0c0.7,1.4,0.4,2.9,0.3,4.3
		c0,0.3-0.3,0.6-0.6,0.6C66.8,39.7,65.3,40,64,39.3L64,39.3z"/>
	<path class="st1" d="M73.3,34.6c1.3,0,2.6,0,3.9,0c0.6,0,0.8,0.2,0.8,0.8c0,1.3,0,2.6,0,3.9c0,0,0,0,0,0c-1.4,0.7-2.9,0.4-4.3,0.3
		c-0.3,0-0.6-0.3-0.6-0.6C72.9,37.5,72.6,36,73.3,34.6L73.3,34.6z"/>
	<path class="st1" d="M87.3,109.5c0,1.3,0,2.6,0,3.9c0,0.6-0.2,0.8-0.8,0.8c-1.3,0-2.6,0-3.9,0c0-0.1-0.1-0.1-0.1-0.2
		c-0.3-1.5-0.3-2.9,0-4.4c0.1-0.1,0.2-0.2,0.3-0.3C84.4,109.2,85.9,108.9,87.3,109.5L87.3,109.5z"/>
	<path class="st1" d="M17.2,118.9c-1.3,0-2.6,0-4,0c-0.6,0-0.7-0.2-0.7-0.7c0-1.3,0-2.6,0-4c0,0,0,0,0,0c1.4-0.7,2.9-0.4,4.3-0.2
		c0.3,0,0.6,0.3,0.6,0.6C17.5,116,17.8,117.5,17.2,118.9L17.2,118.9z"/>
	<path class="st1" d="M82.7,114.2c0,1.3,0,2.6,0,3.9c0,0.6-0.2,0.8-0.8,0.8c-1.3,0-2.6,0-3.9,0c0,0,0,0,0,0c-0.7-1.5-0.4-3-0.2-4.5
		c0.1-0.1,0.2-0.2,0.3-0.3C79.6,113.8,81.2,113.5,82.7,114.2L82.7,114.2z"/>
	<path class="st2" d="M17.1,118.9c0-1.3,0-2.6,0-4c0-0.6-0.2-0.8-0.7-0.7c-1.3,0-2.6,0-4,0c0-2.8,0-5.6,0-8.4c0-0.8-0.2-1-1-1
		c-1.2,0.1-2.5,0-3.7,0c0-6.2,0-12.5,0.1-18.7c1.4-0.6,2.8-0.3,4.2-0.2c0.4,0,0.6,0.4,0.7,0.8c0.1,0.5,0.1,0.9,0.1,1.4
		c0,2.5-0.1,2.3,2.4,2.3c0.3,0,0.6,0,0.9,0c0.9,0,1.3,0.5,1.4,1.4c0,0.6,0,1.2,0,1.9c0,1.3,0.1,1.4,1.4,1.4c2,0,4,0,5.9,0
		c0.6,0,1.2-0.1,1.7,0.3c0.4,0.5,0.3,1.1,0.3,1.7c0,2,0,4,0,6.1c0,1,0.4,1.4,1.3,1.3c0.5,0,1.1,0,1.6,0c1.4,0,1.7,0.3,1.7,1.7
		c0,2,0,4,0,6c0,1.6,0.1,1.7,1.6,1.7c3.1,0,3.1,0,3.1,3.1c0,0.6,0.1,1.3-0.4,1.9C29.6,118.9,23.4,118.9,17.1,118.9z"/>
	<path class="st3" d="M35.9,118.8c0-1.2-0.1-2.3,0-3.5c0.1-1-0.3-1.2-1.2-1.1c-0.8,0.1-1.6,0-2.3,0c-0.9,0.1-1.2-0.2-1.2-1.2
		c0.1-2.4,0-4.8,0-7.1c0-0.9-0.2-1.2-1.1-1.1c-0.9,0.1-1.8,0-2.7,0c-0.7,0-0.9-0.3-0.9-0.9c0-2.8,0-5.6,0-8.4
		c0.1-0.1,0.1-0.1,0.2-0.2c1.3-0.4,2.6-0.2,3.9-0.1c0.7,0,0.9,0.5,1,1.1c0.1,0.8,0,1.6,0,2.5c0,0.7,0.3,1,1,1c0.7,0,1.4,0,2.1,0
		c1.2,0.1,1.5,0.3,1.5,1.6c0.1,2.1,0,4.2,0,6.3c0,1.3,0.1,1.4,1.5,1.5c0.6,0,1.2,0,1.9,0c0.9,0,1.3,0.5,1.3,1.3c0,0.7,0.1,1.3,0,2
		c0,0.9,0.3,1.4,1.3,1.3c0.4,0,0.8,0,1.2,0c10.9,0,21.8,0,32.6,0c0.7,0,1.4-0.2,2,0.4c0,1.6,0,3.1,0,4.7c-13.6,0-27.2,0-40.7,0
		C36.8,118.9,36.3,118.9,35.9,118.8z"/>
	<path class="st4" d="M26.5,95.5c-2.7,0-5.5-0.1-8.2,0c-1,0-1.2-0.3-1.2-1.2c0.1-0.9,0-1.8,0-2.7c0-0.6-0.2-0.8-0.8-0.8
		c-1,0-1.9,0-2.9,0c-0.7,0-1-0.2-1-0.9c0.1-0.9,0-1.8,0-2.7c0.1-0.9-0.3-1.1-1.1-1.1c-1.2,0.1-2.3,0-3.5,0c0-3.1,0-6.2-0.1-9.4
		c1.3,0,2.6,0,3.9,0c0.7,0,0.9-0.2,0.9-0.9c0-2.8,0-5.7,0-8.5c1.3,0,2.6,0,3.9,0c0.7,0,0.9-0.2,0.9-0.9c0-2.8,0-5.7,0-8.5
		c1.6,0,3.1,0,4.7,0c0.9-0.6,1.9-0.3,2.8-0.3c1.4-0.1,1.4-0.1,1.5-1.5c0-0.5,0-1,0-1.5c0.1-1.4,0.3-1.7,1.8-1.7c0.5,0,0.9,0,1.4,0
		c1.4,0,1.5-0.1,1.5-1.6c0-0.6,0-1.2,0-1.9c0-0.8,0.5-1.2,1.3-1.2c0.8,0,1.6,0,2.3,0c0.7,0,1.1-0.4,1.1-1.1c0-0.8,0-1.6,0-2.3
		c0-0.5,0.2-1.1,0.8-1.1c1.4-0.1,2.9-0.4,4.2,0.2c7.8,0,15.6,0,23.4,0c0.5-0.4,1-0.4,1.6-0.4c3.6,0,7.3,0,10.9,0
		c0.5,0,1.1-0.1,1.5,0.4c0,1.3,0.1,2.6,0,4c0,0.6,0.2,0.7,0.7,0.7c1.3,0,2.6,0,4,0c0,4.7,0,9.4,0,14.1c-0.8,0.6-1.8,0.3-2.7,0.4
		c-0.7,0-1.3,0-2,0c-2.4,0.1-4.9,0-7.3,0c-1.6,0-1.7,0-1.7,1.7c0,1.8,0,3.7,0,5.5c0,1.3,0.1,1.4,1.4,1.4c2.5,0,5.1,0,7.6,0
		c1-0.1,2,0,3,0c0.9,0,1.3-0.3,1.3-1.3c0-2,0-4,0-6.1c0-0.6-0.1-1.2,0.4-1.7c1.6,0,3.1,0,4.7,0c0,4.7,0,9.4,0,14.1
		c-0.1,0-0.1,0.1-0.2,0.1c-0.6,0.3-1.2,0.2-1.8,0.2c-4.9,0-9.7,0-14.6,0c-1.7,0-1.7,0.1-1.7,1.7c0,2.2,0,2.2,2.2,2.2
		c0.3,0,0.6,0,0.9,0c1.1,0.1,1.4,0.3,1.5,1.5c0.1,2.4,0,4.8,0,7.1c0,0.4,0,0.8-0.3,1.1c-0.4,0.3-0.9,0.3-1.3,0.3c-2.2,0-4.4,0-6.7,0
		c-1.5,0-1.7-0.3-1.8-1.8c0-0.5,0-1.1,0-1.6c0-0.9-0.4-1.2-1.3-1.2c-2,0-4.1,0-6.1,0c-1.7,0-2-0.3-2-2c0-3,0.3-2.7-2.8-2.7
		c-6,0-12,0-18,0c-1.8,0-1.8,0-1.9,1.8c0,2.9,0,2.9-2.8,2.9c-1.8,0-1.8,0-1.8,1.8c0,1.9,0,3.7,0,5.6C26.9,94.4,26.9,95,26.5,95.5
		L26.5,95.5z"/>
	<path class="st5" d="M40.6,44c-1.2,0-2.4,0.1-3.6,0c-0.9-0.1-1.2,0.3-1.1,1.1c0.1,0.9,0,1.8,0,2.7c0,0.6-0.2,0.9-0.9,0.9
		c-1,0-1.9,0-2.9,0c-0.7,0-1,0.3-0.9,1c0,0.9,0,1.8,0,2.7c0.1,0.8-0.2,1.1-1,1.1c-0.9-0.1-1.9,0-2.8,0c-0.7,0-0.9,0.2-0.9,0.9
		c0,0.9,0,1.9,0,2.8c0,0.7-0.2,1.1-1,1c-1.2-0.1-2.5,0-3.7,0c0-4.7,0-9.4,0-14c1.3,0,2.6,0,3.9,0c0.7,0,0.9-0.2,0.9-0.9
		c0-2.8,0-5.7,0-8.5c3.1,0,6.3,0,9.4,0c0,1.3,0,2.7,0,4c0,0.6,0.2,0.7,0.7,0.7c1.3,0,2.6,0,4,0C40.6,40.8,40.6,42.4,40.6,44z"/>
	<path class="st5" d="M77.9,44c-4.7,0-9.3,0-14,0c0-1.6,0-3.1,0-4.7c1.3,0,2.7,0,4,0c0.6,0,0.7-0.2,0.7-0.7c0-1.3,0-2.7,0-4
		c1.6,0,3.1,0,4.7,0c0,1.3,0,2.7,0,4c0,0.6,0.2,0.7,0.7,0.7c1.3,0,2.6,0,4,0C78,40.9,78,42.4,77.9,44z"/>
	<path class="st5" d="M26.6,95.5c0-2.8,0-5.7-0.1-8.5c0-0.7,0.3-0.9,0.9-0.8c1,0,1.9,0,2.9,0c0.7,0,0.9-0.2,0.9-0.9
		c0-0.9,0-1.8,0-2.7c-0.1-0.9,0.2-1.1,1.1-1.1c3.4,0,6.9,0,10.3,0c3.7,0,7.3,0,11,0c0.8,0,1.1,0.2,1.1,1.1c-0.1,0.8,0,1.6,0,2.5
		c-0.1,0.9,0.2,1.2,1.2,1.2c2.4-0.1,4.8,0,7.1,0c0.9,0,1.2,0.3,1.1,1.1c0,0,0,0.1,0,0.1c0.1,1.1-0.5,2.6,0.3,3.2
		c0.7,0.7,2.2,0.2,3.3,0.2c1.9,0,3.9,0,5.8,0c1.4-0.6,2.8-0.3,4.2-0.2c0.4,0,0.7,0.3,0.7,0.7c0.1,1.4,0.4,2.8-0.2,4.2
		c-0.5,0.5-1.2,0.4-1.9,0.4c-6.4,0-12.9,0-19.3,0c-1.9,0-1.9,0-1.9,1.9c0,2,0,2,2.1,2c6.3,0,12.5,0,18.8,0c1.7,0,1.7,0,1.8-1.8
		c0-0.8-0.2-1.7,0.3-2.5c0.9-0.7,1.9-0.4,2.8-0.4c1.5-0.1,1.5-0.1,1.5-1.5c0-0.6,0-1.2,0-1.9c0-0.8,0.4-1.3,1.3-1.3
		c0.6,0,1.2,0,1.7,0c1.6,0,1.6-0.1,1.6-1.7c0-1.9,0-3.9,0-5.8c0-0.5,0-1.1,0.3-1.6c1.6-0.5,3.1-0.6,4.7,0.1c0,5.6,0,11.2,0,16.8
		c0,0.7,0,1.3,0,2c-1.3,0-2.6,0-3.9,0c-0.7,0-0.9,0.2-0.9,0.8c0,1.3,0,2.6,0,3.8c-0.5,0.4-1.1,0.3-1.6,0.4c-3,0-2.6-0.3-2.6,2.7
		c0,0.6,0.1,1.2-0.3,1.7l0,0c-0.9,0.6-1.9,0.3-2.8,0.3c-1.4,0.1-1.5,0.1-1.5,1.5c0,0.9,0.3,1.9-0.3,2.8c0,0,0,0,0,0c-12,0-24,0-36,0
		c-1.2,0-1.6-0.3-1.5-1.5c0.1-1,0.5-2.3-0.2-3c-0.6-0.6-1.9-0.2-2.9-0.2c-1.5,0-1.5,0-1.5-1.5c0-2.3,0-4.6,0-6.9
		c0-0.7-0.2-1-0.9-0.9c-0.9,0-1.8,0-2.7,0c-0.8,0-1.1-0.2-1.1-1c0.1-0.9,0-1.8,0-2.7c0.1-0.8-0.3-1-1-1C29,95.5,27.8,95.5,26.6,95.5
		z"/>
	<path class="st6" d="M92,81.4c-1.5,0-3.1,0-4.6,0c-0.7-1.6-0.6-3.1,0-4.7c0,0,0,0,0,0c1.6,0,3.1,0,4.7,0C92,78.3,92,79.9,92,81.4z"
		/>
	<path class="st3" d="M82.7,109.5c0-1.2,0-2.4,0-3.6c-0.1-0.9,0.3-1.1,1.1-1.1c1.2,0.1,2.3,0,3.5,0c0,1.6,0,3.1,0.1,4.7
		C85.8,109.5,84.2,109.5,82.7,109.5z"/>
	<path class="st3" d="M78,114.2c0-1.3,0-2.6,0-3.8c0-0.7,0.2-0.9,0.9-0.9c1.3,0,2.6,0,3.8,0c0,1.6,0,3.1,0,4.7
		C81.1,114.2,79.6,114.2,78,114.2z"/>
	<path d="M87.4,76.7c0,1.6,0,3.1,0,4.7c0,2.8-0.1,5.6,0,8.4c0,0.7-0.1,1-0.9,1c-1-0.1-2,0-3,0c-0.6,0-0.8,0.2-0.7,0.7c0,1,0,2,0,3
		c0.1,0.8-0.3,1-1,0.9c-1.2-0.1-2.5,0-3.7,0l0,0c0-1.3,0-2.6,0-3.8c0-0.6-0.1-0.9-0.8-0.9c-1.3,0-2.6,0-3.8,0c0-2.8,0-5.6,0-8.4
		c0-0.7-0.2-1-0.9-0.9c-0.9,0.1-1.7-0.1-2.6,0c-1.1,0.1-1.3-0.3-1.2-1.3c0.1-1.1-0.3-2.5,0.2-3.2c0.6-0.7,2.1-0.2,3.2-0.2
		C77.2,76.7,82.3,76.7,87.4,76.7z"/>
	<path d="M49.9,76.7c-2.9,0-5.8,0-8.6,0.1c-0.5,0-0.7-0.2-0.7-0.7c0-2.6,0-5.3,0-7.9c0-0.6,0.2-0.7,0.7-0.7c2.9,0,5.8,0,8.6,0.1
		c0.3,0.3,0.4,0.8,0.4,1.2c0,2.3,0,4.6,0,6.9C50.3,75.9,50.3,76.4,49.9,76.7z"/>
	<path d="M78,72c-2.9,0-5.8,0-8.6,0.1c-0.5,0-0.7-0.2-0.7-0.7c0-2.6,0-5.3,0-7.9c0-0.6,0.2-0.7,0.7-0.7c2.9,0,5.8,0,8.6,0.1
		c0.3,0.3,0.4,0.8,0.4,1.2c0,2.3,0,4.6,0,6.9C78.4,71.3,78.3,71.7,78,72z"/>
	<path class="st7" d="M49.9,76.7c0-3.1,0-6.2,0-9.3c1.3,0,2.6,0,3.9-0.1c0.6,0,0.8,0.1,0.8,0.8c0,2.6,0,5.2,0,7.8
		c0,0.6-0.3,0.8-0.8,0.8C52.5,76.7,51.2,76.7,49.9,76.7z"/>
	<path class="st7" d="M78,72c0-3.1,0-6.2,0-9.3c1.6,0,3.1,0,4.7,0c0,0,0,0,0,0c0,2.8,0,5.6,0,8.4c0,0.7-0.2,1-1,1
		C80.5,72,79.2,72,78,72z"/>
	<path d="M78,95.5c0,1.3,0,2.6,0,4c0,0.6-0.2,0.7-0.7,0.7c-7.3,0-14.6,0-22,0c-0.6,0-0.8-0.2-0.7-0.7c0-1,0.1-2,0-3
		c-0.1-0.8,0.3-0.9,1-0.9C63.1,95.5,70.5,95.5,78,95.5C78,95.5,78,95.5,78,95.5z"/>
</g>
</svg>
