<?xml version="1.0" encoding="utf-8"?>
<!-- Generator: Adobe Illustrator 25.4.1, SVG Export Plug-In . SVG Version: 6.00 Build 0)  -->
<svg version="1.1" id="Capa_1" xmlns="http://www.w3.org/2000/svg" xmlns:xlink="http://www.w3.org/1999/xlink" x="0px" y="0px"
	 viewBox="0 0 90 102" style="enable-background:new 0 0 90 102;" xml:space="preserve">
<style type="text/css">
	.st0{opacity:0.5;}
	.st1{fill:#010101;}
	.st2{fill:#B66A2A;}
	.st3{fill:#BABABA;}
	.st4{fill:#FE943A;}
	.st5{fill:#FEC494;}
	.st6{fill:#FD943A;}
	.st7{fill:#FEFEFD;}
</style>
<g class="st0">
	<path d="M46.8,56.1c0,0.8,0,1.6,0,2.4c0,0.3-0.1,0.5-0.4,0.4c-0.1,0-0.2,0-0.4,0c-11.9,0-23.8,0-35.7,0c-0.6,0-0.9-0.1-0.8-0.8
		c0.1-0.7,0-1.4,0-2.1c0,0,0.1-0.1,0.1-0.1c0.2-0.1,0.5-0.1,0.7-0.1c3.6,0,7.1,0,10.7,0c1.4,0,2.8,0,4.2,0c6.8,0,13.5,0,20.3,0
		c0.4,0,0.9-0.1,1.3,0.1C46.7,56.1,46.7,56.1,46.8,56.1z"/>
	<path d="M3.8,47.5c-0.7,0-1.5,0-2.2,0c-0.5,0-0.7-0.1-0.7-0.7c0-4.9,0-9.8,0-14.7c0-0.6-0.3-1.4,0.1-1.7c0.3-0.3,1.1-0.1,1.7-0.1
		c0.4,0,0.7,0,1.1,0c0,0,0.1,0.1,0.1,0.1c0.2,0.3,0.1,0.7,0.1,1c0,1.6,0,3.1,0,4.7c0,3.5,0,7.1,0,10.6c0,0.2,0,0.5-0.1,0.7
		C3.9,47.5,3.8,47.5,3.8,47.5z"/>
	<path d="M23.9,7.4c4.8,0,9.6,0,14.3,0c0,0,0.1,0.1,0.1,0.1c0.1,0.9,0.3,1.9-0.1,2.8c-0.3,0.2-0.7,0.2-1,0.2c-4.1,0-8.1,0-12.2,0
		c-0.4,0-0.7,0-1.1-0.2c-0.5-0.9-0.3-1.9-0.1-2.8C23.8,7.5,23.8,7.4,23.9,7.4z"/>
	<path d="M55.4,30.3c0.8,0,1.6,0,2.4,0c0.3,0,0.4,0.1,0.4,0.4c0,4.5,0,9,0,13.5c0,0.3-0.1,0.4-0.4,0.4c-0.8,0-1.6,0-2.4,0
		c0,0-0.1-0.1-0.1-0.1c-0.1-0.2-0.1-0.5-0.1-0.7c0-3.5,0-7.1,0-10.6c0-0.9-0.1-1.9,0.1-2.8C55.3,30.4,55.3,30.4,55.4,30.3z"/>
	<path d="M9.5,18.9c0-2.7,0-5.3,0-8c0-0.5,0.1-0.6,0.6-0.6c0.8,0,1.5,0,2.3,0c0,0,0.1,0.1,0.1,0.1c0.1,0.3,0.1,0.6,0.1,0.8
		c0,2.2,0,4.5,0,6.7c0,0.3,0,0.6-0.2,0.9c-0.9,0.4-1.9,0.3-2.8,0.1C9.6,18.9,9.6,18.9,9.5,18.9z"/>
	<path d="M49.6,13.1c0.8,0,1.5,0,2.3,0c0.5,0,0.6,0.1,0.6,0.6c0,2.7,0,5.3,0,8c0,0-0.1,0.1-0.1,0.1c-0.9,0.2-1.8,0.2-2.7,0
		c-0.1-0.1-0.1-0.1-0.2-0.2c-0.1-0.3-0.1-0.6-0.1-0.8c0-2.2,0-4.4,0-6.6c0-0.3,0-0.6,0.1-0.9C49.6,13.2,49.6,13.2,49.6,13.1z"/>
	<path d="M52.5,21.7c0.8,0,1.5,0,2.3,0c0.5,0,0.6,0.1,0.6,0.6c0,2.7,0,5.3,0,8c0,0,0,0,0,0c-1,0.4-1.9,0.4-2.9,0
		c-0.2-0.3-0.2-0.7-0.2-1c0-2.2,0-4.4,0-6.6C52.3,22.4,52.3,22,52.5,21.7L52.5,21.7z"/>
	<path d="M15.3,4.5c0-0.8,0-1.6,0-2.4c0-0.3,0.1-0.5,0.4-0.4c1.6,0,3.2,0,4.9,0c0.3,0,0.4,0.1,0.4,0.4c0,0.8,0,1.6,0,2.4
		c0,0-0.1,0.1-0.1,0.1c-0.9,0.3-1.8,0.1-2.7,0.1c-0.9,0-1.9,0.1-2.8-0.1C15.3,4.6,15.3,4.6,15.3,4.5z"/>
	<path d="M12.4,10.3c0-1.7,0-3.5,0-5.2c0-0.4,0.1-0.5,0.5-0.5c0.8,0,1.6,0,2.4,0c0,0,0,0,0,0c0.2,0.2,0.2,0.5,0.2,0.8
		c0,1.4,0,2.8,0,4.1c0,0.8-0.2,1-1,1C13.8,10.5,13,10.7,12.4,10.3L12.4,10.3z"/>
	<path d="M46.8,7.4c0.8,0,1.6,0,2.4,0c0.4,0,0.5,0.1,0.5,0.5c0,1.7,0,3.5,0,5.2l0,0c-0.9,0.4-1.8,0.2-2.6,0.1
		c-0.4,0-0.4-0.4-0.4-0.7c0-0.7,0-1.5,0-2.2c0-0.9-0.1-1.9,0.1-2.8C46.7,7.5,46.7,7.4,46.8,7.4z"/>
	<path d="M6.7,24.6c0-1.7,0-3.5,0-5.2c0-0.4,0.1-0.5,0.5-0.5c0.8,0,1.6,0,2.4,0c0,0,0,0,0,0c0.2,0.3,0.2,0.6,0.2,0.9
		c0,1.3,0,2.7,0,4c0,0.9-0.2,1.1-1.1,1.1c-0.6,0-1.3,0.1-1.9-0.1C6.7,24.7,6.7,24.6,6.7,24.6z"/>
	<path d="M55.4,44.7c0,1.7,0,3.5,0,5.2c0,0.4-0.1,0.6-0.5,0.6c-0.8,0-1.6,0-2.3,0c0,0-0.1-0.1-0.1-0.1c-0.2-0.9-0.1-1.9-0.1-2.8
		c0-0.7,0-1.4,0-2.1c0-0.6,0.3-0.9,0.9-0.9C53.9,44.5,54.7,44.2,55.4,44.7L55.4,44.7z"/>
	<path d="M6.7,53.3c-0.8,0-1.6,0-2.4,0c-0.4,0-0.5-0.1-0.5-0.5c0-1.7,0-3.5,0-5.2c0,0,0,0,0,0c0.9-0.4,1.8-0.2,2.6-0.1
		c0.3,0,0.4,0.3,0.4,0.5c0,1.7,0.2,3.5-0.1,5.2C6.7,53.2,6.7,53.2,6.7,53.3z"/>
	<path d="M3.8,30.3c0-1.7,0-3.5,0-5.2c0-0.4,0.1-0.5,0.5-0.5c0.8,0,1.6,0,2.4,0l0,0c0.2,0.2,0.2,0.5,0.2,0.8c0,1.4,0,2.8,0,4.1
		c0,0.8-0.2,1-1,1C5.2,30.5,4.4,30.8,3.8,30.3L3.8,30.3z"/>
	<path class="st1" d="M41.1,4.5c0-0.8,0-1.6,0-2.4c0-0.3,0.1-0.5,0.4-0.4c0,0,0,0,0.1,0c0.8,0,1.8-0.3,2.2,0.1
		c0.5,0.4,0.1,1.4,0.1,2.2c0,0.2,0,0.4,0,0.6c0,0-0.1,0.1-0.1,0.1C42.9,4.8,42,4.8,41.1,4.5C41.1,4.6,41.1,4.6,41.1,4.5z"/>
	<path class="st1" d="M21,4.5c0.8,0,1.6,0,2.4,0c0.4,0,0.5,0.1,0.5,0.5c0,0.8,0,1.6,0,2.4c0,0,0,0,0,0c-0.9,0.4-1.8,0.2-2.6,0.2
		c-0.2,0-0.4-0.2-0.4-0.4C20.8,6.3,20.6,5.4,21,4.5L21,4.5z"/>
	<path class="st1" d="M38.2,7.4c0-0.8,0-1.6,0-2.4c0-0.3,0.1-0.5,0.4-0.4c0.8,0,1.6,0,2.4,0l0,0c0.4,0.9,0.2,1.8,0.2,2.6
		c0,0.2-0.2,0.4-0.4,0.4C39.9,7.6,39,7.8,38.2,7.4L38.2,7.4z"/>
	<path class="st1" d="M43.9,4.5c0.8,0,1.6,0,2.4,0c0.4,0,0.5,0.1,0.5,0.5c0,0.8,0,1.6,0,2.4c0,0,0,0,0,0c-0.9,0.4-1.8,0.2-2.6,0.2
		c-0.2,0-0.4-0.2-0.4-0.4C43.7,6.3,43.5,5.4,43.9,4.5L43.9,4.5z"/>
	<path class="st1" d="M52.5,50.4c0,0.8,0,1.6,0,2.4c0,0.4-0.1,0.5-0.5,0.5c-0.8,0-1.6,0-2.4,0c0,0-0.1-0.1-0.1-0.1
		c-0.2-0.9-0.2-1.8,0-2.7c0-0.1,0.1-0.1,0.2-0.2C50.7,50.2,51.6,50,52.5,50.4L52.5,50.4z"/>
	<path class="st1" d="M9.5,56.1c-0.8,0-1.6,0-2.4,0c-0.3,0-0.5-0.1-0.4-0.4c0-0.8,0-1.6,0-2.4c0,0,0,0,0,0c0.9-0.4,1.8-0.2,2.6-0.2
		c0.2,0,0.4,0.2,0.4,0.4C9.8,54.4,10,55.3,9.5,56.1L9.5,56.1z"/>
	<path class="st1" d="M49.6,53.3c0,0.8,0,1.6,0,2.4c0,0.4-0.1,0.5-0.5,0.5c-0.8,0-1.6,0-2.4,0c0,0,0,0,0,0c-0.4-0.9-0.2-1.8-0.1-2.8
		c0-0.1,0.1-0.2,0.2-0.2C47.8,53,48.7,52.9,49.6,53.3L49.6,53.3z"/>
	<path class="st2" d="M9.5,56.1c0-0.8,0-1.6,0-2.4c0-0.3-0.1-0.5-0.5-0.5c-0.8,0-1.6,0-2.4,0c0-1.7,0-3.4,0-5.1
		c0-0.5-0.1-0.6-0.6-0.6c-0.8,0-1.5,0-2.3,0c0-3.8,0-7.7,0-11.5c0.8-0.4,1.7-0.2,2.6-0.1c0.3,0,0.4,0.3,0.4,0.5c0.1,0.3,0,0.6,0,0.9
		c0,1.6,0,1.4,1.5,1.4c0.2,0,0.4,0,0.6,0c0.6,0,0.8,0.3,0.8,0.8c0,0.4,0,0.8,0,1.1c0,0.8,0.1,0.9,0.8,0.9c1.2,0,2.4,0,3.6,0
		c0.4,0,0.7,0,1,0.2c0.2,0.3,0.2,0.7,0.2,1c0,1.2,0,2.5,0,3.7c0,0.6,0.2,0.8,0.8,0.8c0.3,0,0.7,0,1,0c0.9,0,1.1,0.2,1.1,1.1
		c0,1.2,0,2.4,0,3.6c0,1,0,1,1,1c1.9,0,1.9,0,1.9,1.9c0,0.4,0.1,0.8-0.2,1.2C17.2,56.1,13.3,56.1,9.5,56.1z"/>
	<path class="st3" d="M21,56.1c0-0.7,0-1.4,0-2.1c0-0.6-0.2-0.7-0.7-0.7c-0.5,0-1,0-1.4,0c-0.5,0-0.7-0.1-0.7-0.7c0-1.5,0-2.9,0-4.4
		c0-0.5-0.1-0.7-0.7-0.7c-0.5,0-1.1,0-1.6,0c-0.5,0-0.6-0.2-0.6-0.6c0-1.7,0-3.4,0-5.2c0,0,0.1-0.1,0.1-0.1c0.8-0.3,1.6-0.1,2.4-0.1
		c0.4,0,0.5,0.3,0.6,0.7c0,0.5,0,1,0,1.5c0,0.4,0.2,0.6,0.6,0.6c0.4,0,0.9,0,1.3,0c0.8,0,0.9,0.2,0.9,1c0,1.3,0,2.6,0,3.9
		c0,0.8,0.1,0.9,0.9,0.9c0.4,0,0.8,0,1.1,0c0.5,0,0.8,0.3,0.8,0.8c0,0.4,0,0.8,0,1.2c0,0.6,0.2,0.9,0.8,0.8c0.2,0,0.5,0,0.7,0
		c6.7,0,13.3,0,20,0c0.4,0,0.9-0.1,1.2,0.2c0,1,0,1.9,0,2.9c-8.3,0-16.6,0-24.9,0C21.6,56.1,21.3,56.1,21,56.1z"/>
	<path class="st4" d="M15.2,41.8c-1.7,0-3.3,0-5,0c-0.6,0-0.7-0.2-0.7-0.7c0-0.5,0-1.1,0-1.6c0-0.4-0.1-0.5-0.5-0.5
		c-0.6,0-1.2,0-1.8,0c-0.4,0-0.6-0.1-0.6-0.6c0-0.5,0-1.1,0-1.6c0-0.6-0.2-0.7-0.7-0.7c-0.7,0-1.4,0-2.1,0c0-1.9,0-3.8,0-5.7
		c0.8,0,1.6,0,2.4,0c0.4,0,0.5-0.1,0.5-0.5c0-1.7,0-3.5,0-5.2c0.8,0,1.6,0,2.4,0c0.4,0,0.5-0.1,0.5-0.5c0-1.7,0-3.5,0-5.2
		c1,0,1.9,0,2.9,0c0.5-0.4,1.2-0.2,1.7-0.2c0.8,0,0.9-0.1,0.9-0.9c0-0.3,0-0.6,0-0.9c0-0.9,0.2-1,1.1-1c0.3,0,0.6,0,0.9,0
		c0.9,0,0.9-0.1,0.9-1c0-0.4,0-0.8,0-1.1c0-0.5,0.3-0.7,0.8-0.8c0.5,0,1,0,1.4,0c0.5,0,0.6-0.2,0.6-0.7c0-0.5,0-1,0-1.4
		c0-0.3,0.1-0.7,0.5-0.7c0.9-0.1,1.7-0.3,2.6,0.1c4.8,0,9.5,0,14.3,0c0.3-0.2,0.6-0.2,0.9-0.2c2.2,0,4.5,0,6.7,0
		c0.3,0,0.7,0,0.9,0.2c0,0.8,0,1.6,0,2.4c0,0.3,0.1,0.5,0.4,0.5c0.8,0,1.6,0,2.4,0c0,2.9,0,5.7,0,8.6c-0.5,0.4-1.1,0.2-1.7,0.2
		c-0.4,0-0.8,0-1.2,0c-1.5,0-3,0-4.5,0c-1,0-1,0-1,1.1c0,1.1,0,2.2,0,3.4c0,0.8,0.1,0.9,0.9,0.9c1.5,0,3.1,0,4.6,0
		c0.6,0,1.2,0,1.9,0c0.6,0,0.8-0.2,0.8-0.8c0-1.2,0-2.5,0-3.7c0-0.4,0-0.7,0.2-1c1,0,1.9,0,2.9,0c0,2.9,0,5.7,0,8.6
		c0,0-0.1,0.1-0.1,0.1c-0.4,0.2-0.7,0.1-1.1,0.1c-3,0-6,0-9,0c-1,0-1,0-1,1c0,1.4,0,1.4,1.4,1.4c0.2,0,0.4,0,0.6,0
		c0.7,0.1,0.9,0.2,0.9,0.9c0,1.5,0,2.9,0,4.4c0,0.2,0,0.5-0.2,0.7c-0.2,0.2-0.5,0.2-0.8,0.2c-1.4,0-2.7,0-4.1,0
		C38.2,39.1,38,39,38,38c0-0.3,0-0.7,0-1c0-0.6-0.2-0.8-0.8-0.8c-1.2,0-2.5,0-3.7,0c-1.1,0-1.2-0.2-1.2-1.2c0-1.8,0.2-1.7-1.7-1.7
		c-3.7,0-7.3,0-11,0c-1.1,0-1.1,0-1.1,1.1c0,1.7,0,1.7-1.7,1.8c-1.1,0-1.1,0-1.1,1.1c0,1.1,0,2.3,0,3.4
		C15.5,41.2,15.5,41.5,15.2,41.8L15.2,41.8z"/>
	<path class="st5" d="M23.9,10.2c-0.7,0-1.5,0-2.2,0c-0.6,0-0.7,0.2-0.7,0.7c0,0.5,0,1.1,0,1.6c0,0.4-0.1,0.6-0.5,0.5
		c-0.6,0-1.2,0-1.8,0c-0.4,0-0.6,0.2-0.6,0.6c0,0.5,0,1.1,0,1.6c0,0.5-0.1,0.7-0.6,0.7c-0.6,0-1.1,0-1.7,0c-0.4,0-0.5,0.1-0.5,0.5
		c0,0.6,0,1.1,0,1.7c0,0.5-0.1,0.6-0.6,0.6c-0.8,0-1.5,0-2.3,0c0-2.9,0-5.7,0-8.6c0.8,0,1.6,0,2.4,0c0.4,0,0.5-0.1,0.5-0.5
		c0-1.7,0-3.5,0-5.2c1.9,0,3.8,0,5.7,0c0,0.8,0,1.6,0,2.4c0,0.3,0.1,0.5,0.4,0.4c0.8,0,1.6,0,2.4,0C23.9,8.3,23.9,9.3,23.9,10.2z"/>
	<path class="st5" d="M46.8,10.3c-2.9,0-5.7,0-8.6,0c0-1,0-1.9,0-2.9c0.8,0,1.6,0,2.4,0c0.3,0,0.5-0.1,0.4-0.4c0-0.8,0-1.6,0-2.4
		c1,0,1.9,0,2.9,0c0,0.8,0,1.6,0,2.4c0,0.3,0.1,0.5,0.4,0.4c0.8,0,1.6,0,2.4,0C46.8,8.3,46.8,9.3,46.8,10.3z"/>
	<path class="st5" d="M15.3,41.8c0-1.7,0-3.5,0-5.2c0-0.4,0.2-0.5,0.6-0.5c0.6,0,1.2,0,1.8,0c0.4,0,0.5-0.2,0.5-0.5
		c0-0.5,0-1.1,0-1.6c0-0.5,0.1-0.7,0.7-0.7c2.1,0,4.2,0,6.3,0c2.2,0,4.5,0,6.7,0c0.5,0,0.7,0.2,0.6,0.7c0,0.5,0,1,0,1.5
		c0,0.5,0.1,0.8,0.7,0.7c1.5,0,2.9,0,4.4,0c0.5,0,0.8,0.2,0.7,0.7c0,0,0,0,0,0.1c0.1,0.7-0.3,1.6,0.2,2c0.5,0.4,1.3,0.1,2,0.1
		c1.2,0,2.4,0,3.6,0c0.8-0.4,1.7-0.2,2.6-0.1c0.2,0,0.4,0.2,0.4,0.4c0.1,0.9,0.2,1.7-0.1,2.6c-0.3,0.3-0.8,0.3-1.2,0.3
		c-3.9,0-7.9,0-11.8,0c-1.1,0-1.2,0-1.2,1.2c0,1.2,0,1.2,1.3,1.2c3.8,0,7.7,0,11.5,0c1.1,0,1.1,0,1.1-1.1c0-0.5-0.1-1.1,0.2-1.5
		c0.5-0.4,1.1-0.2,1.7-0.2c0.9,0,0.9-0.1,0.9-0.9c0-0.4,0-0.8,0-1.1c0-0.5,0.3-0.8,0.8-0.8c0.4,0,0.7,0,1.1,0c1,0,1,0,1-1
		c0-1.2,0-2.4,0-3.6c0-0.3,0-0.7,0.2-1c1-0.3,1.9-0.3,2.9,0c0,3.4,0,6.8,0,10.3c0,0.4,0,0.8,0,1.2c-0.8,0-1.6,0-2.4,0
		c-0.4,0-0.5,0.1-0.5,0.5c0,0.8,0,1.6,0,2.4c-0.3,0.3-0.7,0.2-1,0.2c-1.8,0-1.6-0.2-1.6,1.6c0,0.4,0,0.7-0.2,1l0,0
		c-0.5,0.4-1.2,0.2-1.7,0.2c-0.9,0-0.9,0-0.9,0.9c0,0.6,0.2,1.2-0.2,1.7c0,0,0,0,0,0c-7.3,0-14.7,0-22,0c-0.7,0-1-0.2-0.9-0.9
		c0-0.6,0.3-1.4-0.1-1.9c-0.4-0.4-1.2-0.1-1.8-0.1c-0.9,0-0.9,0-0.9-0.9c0-1.4,0-2.8,0-4.2c0-0.4-0.1-0.6-0.6-0.6
		c-0.5,0-1.1,0-1.6,0c-0.5,0-0.7-0.1-0.7-0.6c0-0.5,0-1.1,0-1.6c0-0.5-0.2-0.6-0.6-0.6C16.8,41.8,16,41.8,15.3,41.8z"/>
	<path class="st6" d="M55.4,33.2c-0.9,0-1.9,0-2.8,0c-0.4-1-0.4-1.9,0-2.9c0,0,0,0,0,0c1,0,1.9,0,2.9,0
		C55.4,31.3,55.4,32.2,55.4,33.2z"/>
	<path class="st3" d="M49.7,50.4c0-0.7,0-1.5,0-2.2c0-0.6,0.2-0.7,0.7-0.7c0.7,0,1.4,0,2.1,0c0,1,0,1.9,0,2.9
		C51.6,50.4,50.6,50.4,49.7,50.4z"/>
	<path class="st3" d="M46.8,53.3c0-0.8,0-1.6,0-2.3c0-0.4,0.1-0.5,0.5-0.5c0.8,0,1.6,0,2.3,0c0,1,0,1.9,0,2.9
		C48.7,53.3,47.7,53.3,46.8,53.3z"/>
	<path d="M52.5,30.3c0,1,0,1.9,0,2.9c0,1.7,0,3.4,0,5.1c0,0.4-0.1,0.6-0.6,0.6c-0.6,0-1.2,0-1.9,0c-0.3,0-0.5,0.1-0.4,0.4
		c0,0.6,0,1.2,0,1.9c0,0.5-0.2,0.6-0.6,0.6c-0.8,0-1.5,0-2.3,0l0,0c0-0.8,0-1.6,0-2.4c0-0.4-0.1-0.5-0.5-0.5c-0.8,0-1.6,0-2.4,0
		c0-1.7,0-3.4,0-5.2c0-0.4-0.1-0.6-0.6-0.6c-0.5,0-1.1,0-1.6,0C41.1,33.3,41,33,41,32.4c0.1-0.7-0.2-1.5,0.1-1.9
		c0.4-0.5,1.3-0.1,2-0.1C46.3,30.3,49.4,30.3,52.5,30.3z"/>
	<path d="M29.6,30.3c-1.8,0-3.5,0-5.3,0c-0.3,0-0.5-0.1-0.5-0.4c0-1.6,0-3.2,0-4.9c0-0.3,0.1-0.4,0.5-0.4c1.8,0,3.5,0,5.3,0
		c0.2,0.2,0.2,0.5,0.2,0.7c0,1.4,0,2.8,0,4.2C29.8,29.8,29.8,30.1,29.6,30.3z"/>
	<path d="M46.8,27.4c-1.8,0-3.5,0-5.3,0c-0.3,0-0.5-0.1-0.5-0.4c0-1.6,0-3.2,0-4.9c0-0.3,0.1-0.4,0.5-0.4c1.8,0,3.5,0,5.3,0
		C47,22,47,22.2,47,22.5c0,1.4,0,2.8,0,4.2C47,27,47,27.2,46.8,27.4z"/>
	<path class="st7" d="M29.6,30.3c0-1.9,0-3.8,0-5.7c0.8,0,1.6,0,2.4,0c0.4,0,0.5,0.1,0.5,0.5c0,1.6,0,3.2,0,4.8
		c0,0.4-0.2,0.5-0.5,0.5C31.2,30.3,30.4,30.3,29.6,30.3z"/>
	<path class="st7" d="M46.8,27.4c0-1.9,0-3.8,0-5.7c1,0,1.9,0,2.9,0c0,0,0,0,0,0c0,1.7,0,3.4,0,5.1c0,0.5-0.1,0.6-0.6,0.6
		C48.3,27.4,47.5,27.4,46.8,27.4z"/>
	<path d="M46.8,41.8c0,0.8,0,1.6,0,2.4c0,0.3-0.1,0.5-0.4,0.4c-4.5,0-9,0-13.4,0c-0.3,0-0.5-0.1-0.4-0.4c0-0.6,0-1.2,0-1.9
		c0-0.5,0.2-0.6,0.6-0.6C37.6,41.8,42.2,41.8,46.8,41.8C46.8,41.8,46.8,41.8,46.8,41.8z"/>
</g>
<g class="st0">
	<path d="M80.4,55.4c0,0.6,0,1.1,0,1.7c0,0.2-0.1,0.3-0.3,0.3c-0.1,0-0.2,0-0.3,0c-8.3,0-16.7,0-25,0c-0.5,0-0.6-0.1-0.6-0.6
		c0-0.5,0-1,0-1.5c0,0,0,0,0.1-0.1c0.2-0.1,0.3-0.1,0.5-0.1c2.5,0,5,0,7.5,0c1,0,1.9,0,2.9,0c4.7,0,9.5,0,14.2,0
		C79.8,55.2,80.1,55.2,80.4,55.4C80.4,55.3,80.4,55.3,80.4,55.4z"/>
	<path d="M50.3,49.3c-0.5,0-1,0-1.6,0c-0.4,0-0.5-0.1-0.5-0.5c0-3.4,0-6.9,0-10.3c0-0.4-0.2-1,0.1-1.2c0.2-0.2,0.8-0.1,1.2-0.1
		c0.3,0,0.5,0,0.8,0c0,0,0,0,0.1,0.1c0.1,0.2,0.1,0.5,0.1,0.7c0,1.1,0,2.2,0,3.3c0,2.5,0,5,0,7.5C50.5,48.9,50.5,49.1,50.3,49.3
		C50.4,49.3,50.4,49.3,50.3,49.3z"/>
	<path d="M64.4,21.2c3.4,0,6.7,0,10.1,0c0,0,0,0,0.1,0.1c0.1,0.7,0.2,1.3-0.1,2c-0.2,0.1-0.5,0.1-0.7,0.1c-2.8,0-5.7,0-8.5,0
		c-0.2,0-0.5,0-0.7-0.1C64.1,22.6,64.2,22,64.4,21.2C64.3,21.3,64.4,21.3,64.4,21.2z"/>
	<path d="M86.5,37.3c0.6,0,1.1,0,1.7,0c0.2,0,0.3,0.1,0.3,0.3c0,3.1,0,6.3,0,9.4c0,0.2-0.1,0.3-0.3,0.3c-0.6,0-1.1,0-1.7,0
		c0,0,0,0-0.1-0.1c-0.1-0.2-0.1-0.3-0.1-0.5c0-2.5,0-4.9,0-7.4C86.4,38.7,86.2,38,86.5,37.3C86.4,37.3,86.4,37.3,86.5,37.3z"/>
	<path d="M54.4,29.3c0-1.9,0-3.7,0-5.6c0-0.3,0.1-0.4,0.4-0.4c0.5,0,1.1,0,1.6,0c0,0,0,0,0.1,0.1c0.1,0.2,0.1,0.4,0.1,0.6
		c0,1.6,0,3.1,0,4.7c0,0.2,0,0.4-0.1,0.6C55.8,29.5,55.1,29.4,54.4,29.3C54.4,29.3,54.4,29.3,54.4,29.3z"/>
	<path d="M82.5,25.2c0.5,0,1.1,0,1.6,0c0.3,0,0.4,0.1,0.4,0.4c0,1.9,0,3.7,0,5.6c0,0,0,0-0.1,0.1c-0.6,0.1-1.3,0.1-1.9,0
		c-0.1,0-0.1-0.1-0.1-0.1c-0.1-0.2-0.1-0.4-0.1-0.6c0-1.5,0-3.1,0-4.6C82.3,25.7,82.3,25.5,82.5,25.2C82.4,25.3,82.4,25.3,82.5,25.2
		z"/>
	<path d="M84.5,31.3c0.5,0,1.1,0,1.6,0c0.3,0,0.4,0.1,0.4,0.4c0,1.9,0,3.7,0,5.6c0,0,0,0,0,0c-0.7,0.3-1.4,0.2-2,0
		c-0.2-0.2-0.1-0.5-0.1-0.7c0-1.5,0-3.1,0-4.6C84.3,31.7,84.3,31.5,84.5,31.3L84.5,31.3z"/>
	<path d="M58.4,19.2c0-0.6,0-1.1,0-1.7c0-0.2,0.1-0.3,0.3-0.3c1.1,0,2.3,0,3.4,0c0.2,0,0.3,0.1,0.3,0.3c0,0.6,0,1.1,0,1.7
		c0,0,0,0-0.1,0.1c-0.6,0.2-1.3,0.1-1.9,0.1C59.8,19.4,59.1,19.5,58.4,19.2C58.4,19.3,58.4,19.2,58.4,19.2z"/>
	<path d="M56.4,23.2c0-1.2,0-2.4,0-3.7c0-0.3,0.1-0.4,0.4-0.4c0.6,0,1.1,0,1.7,0c0,0,0,0,0,0c0.1,0.2,0.2,0.4,0.2,0.6
		c0,1,0,1.9,0,2.9c0,0.6-0.1,0.7-0.7,0.7C57.3,23.4,56.8,23.5,56.4,23.2L56.4,23.2z"/>
	<path d="M80.4,21.2c0.6,0,1.1,0,1.7,0c0.3,0,0.4,0.1,0.4,0.4c0,1.2,0,2.4,0,3.7l0,0c-0.6,0.3-1.2,0.2-1.9,0.1
		c-0.3,0-0.3-0.3-0.3-0.5c0-0.5,0-1,0-1.5C80.3,22.6,80.2,22,80.4,21.2C80.4,21.3,80.4,21.3,80.4,21.2z"/>
	<path d="M52.3,33.3c0-1.2,0-2.4,0-3.7c0-0.3,0.1-0.4,0.4-0.4c0.6,0,1.1,0,1.7,0c0,0,0,0,0,0c0.2,0.2,0.2,0.4,0.2,0.6
		c0,0.9,0,1.9,0,2.8c0,0.6-0.1,0.8-0.8,0.8C53.3,33.4,52.9,33.5,52.3,33.3C52.4,33.3,52.4,33.3,52.3,33.3z"/>
	<path d="M86.5,47.3c0,1.2,0,2.4,0,3.6c0,0.3-0.1,0.4-0.4,0.4c-0.5,0-1.1,0-1.6,0c0,0,0,0-0.1-0.1c-0.2-0.7-0.1-1.3-0.1-2
		c0-0.5,0-1,0-1.5c0-0.4,0.2-0.6,0.6-0.6C85.4,47.2,86,47,86.5,47.3L86.5,47.3z"/>
	<path d="M52.3,53.4c-0.6,0-1.1,0-1.7,0c-0.3,0-0.4-0.1-0.4-0.4c0-1.2,0-2.4,0-3.7c0,0,0,0,0,0c0.6-0.3,1.2-0.2,1.9-0.1
		c0.2,0,0.3,0.2,0.3,0.4C52.5,50.8,52.6,52.1,52.3,53.4C52.4,53.3,52.4,53.3,52.3,53.4z"/>
	<path d="M50.3,37.3c0-1.2,0-2.4,0-3.7c0-0.3,0.1-0.4,0.4-0.4c0.6,0,1.1,0,1.7,0l0,0c0.1,0.2,0.2,0.4,0.2,0.6c0,1,0,1.9,0,2.9
		c0,0.6-0.1,0.7-0.7,0.7C51.3,37.4,50.8,37.6,50.3,37.3L50.3,37.3z"/>
	<path class="st1" d="M76.4,19.2c0-0.6,0-1.1,0-1.7c0-0.2,0.1-0.3,0.3-0.3c0,0,0,0,0.1,0c0.5,0,1.2-0.2,1.5,0.1
		c0.3,0.3,0.1,1,0.1,1.5c0,0.1,0,0.3,0,0.4c0,0,0,0-0.1,0.1C77.7,19.4,77.1,19.4,76.4,19.2C76.5,19.3,76.5,19.2,76.4,19.2z"/>
	<path class="st1" d="M62.4,19.2c0.6,0,1.1,0,1.7,0c0.3,0,0.3,0.1,0.3,0.3c0,0.6,0,1.1,0,1.7c0,0,0,0,0,0c-0.6,0.3-1.2,0.2-1.9,0.1
		c-0.1,0-0.3-0.1-0.3-0.3C62.2,20.4,62.1,19.8,62.4,19.2L62.4,19.2z"/>
	<path class="st1" d="M74.4,21.2c0-0.6,0-1.1,0-1.7c0-0.2,0.1-0.3,0.3-0.3c0.6,0,1.1,0,1.7,0l0,0c0.3,0.6,0.2,1.2,0.1,1.9
		c0,0.1-0.1,0.3-0.3,0.3C75.6,21.4,75,21.5,74.4,21.2L74.4,21.2z"/>
	<path class="st1" d="M78.4,19.2c0.6,0,1.1,0,1.7,0c0.3,0,0.3,0.1,0.3,0.3c0,0.6,0,1.1,0,1.7c0,0,0,0,0,0c-0.6,0.3-1.2,0.2-1.9,0.1
		c-0.1,0-0.3-0.1-0.3-0.3C78.3,20.4,78.1,19.8,78.4,19.2L78.4,19.2z"/>
	<path class="st1" d="M84.5,51.3c0,0.6,0,1.1,0,1.7c0,0.3-0.1,0.3-0.3,0.3c-0.6,0-1.1,0-1.7,0c0,0,0,0-0.1-0.1
		c-0.1-0.6-0.1-1.3,0-1.9c0-0.1,0.1-0.1,0.1-0.1C83.2,51.2,83.8,51.1,84.5,51.3L84.5,51.3z"/>
	<path class="st1" d="M54.3,55.4c-0.6,0-1.1,0-1.7,0c-0.2,0-0.3-0.1-0.3-0.3c0-0.6,0-1.1,0-1.7c0,0,0,0,0,0c0.6-0.3,1.2-0.2,1.8-0.1
		c0.1,0,0.3,0.1,0.3,0.3C54.5,54.1,54.6,54.8,54.3,55.4L54.3,55.4z"/>
	<path class="st1" d="M82.5,53.3c0,0.6,0,1.1,0,1.7c0,0.3-0.1,0.3-0.3,0.3c-0.6,0-1.1,0-1.7,0c0,0,0,0,0,0c-0.3-0.6-0.2-1.3-0.1-1.9
		c0-0.1,0.1-0.1,0.1-0.1C81.2,53.2,81.8,53.1,82.5,53.3L82.5,53.3z"/>
	<path class="st2" d="M54.3,55.4c0-0.6,0-1.1,0-1.7c0-0.2-0.1-0.3-0.3-0.3c-0.6,0-1.1,0-1.7,0c0-1.2,0-2.4,0-3.6
		c0-0.3-0.1-0.4-0.4-0.4c-0.5,0-1.1,0-1.6,0c0-2.7,0-5.4,0-8c0.6-0.3,1.2-0.1,1.8-0.1c0.2,0,0.3,0.2,0.3,0.4c0,0.2,0,0.4,0,0.6
		c0,1.1,0,1,1,1c0.1,0,0.3,0,0.4,0c0.4,0,0.6,0.2,0.6,0.6c0,0.3,0,0.5,0,0.8c0,0.6,0,0.6,0.6,0.6c0.9,0,1.7,0,2.6,0
		c0.2,0,0.5,0,0.7,0.1c0.2,0.2,0.1,0.5,0.1,0.7c0,0.9,0,1.7,0,2.6c0,0.4,0.2,0.6,0.6,0.6c0.2,0,0.5,0,0.7,0c0.6,0,0.7,0.1,0.7,0.7
		c0,0.9,0,1.7,0,2.6c0,0.7,0,0.7,0.7,0.7c1.3,0,1.3,0,1.3,1.3c0,0.3,0.1,0.6-0.2,0.8C59.7,55.4,57,55.4,54.3,55.4z"/>
	<path class="st3" d="M62.4,55.3c0-0.5,0-1,0-1.5c0-0.4-0.1-0.5-0.5-0.5c-0.3,0-0.7,0-1,0c-0.4,0-0.5-0.1-0.5-0.5c0-1,0-2,0-3.1
		c0-0.4-0.1-0.5-0.5-0.5c-0.4,0-0.8,0-1.2,0c-0.3,0-0.4-0.1-0.4-0.4c0-1.2,0-2.4,0-3.6c0,0,0,0,0.1-0.1c0.6-0.2,1.1-0.1,1.7-0.1
		c0.3,0,0.4,0.2,0.4,0.5c0,0.4,0,0.7,0,1.1c0,0.3,0.1,0.4,0.4,0.4c0.3,0,0.6,0,0.9,0c0.5,0,0.6,0.1,0.7,0.7c0,0.9,0,1.8,0,2.7
		c0,0.6,0,0.6,0.6,0.6c0.3,0,0.5,0,0.8,0c0.4,0,0.5,0.2,0.6,0.6c0,0.3,0,0.6,0,0.9c0,0.4,0.1,0.6,0.6,0.6c0.2,0,0.3,0,0.5,0
		c4.7,0,9.3,0,14,0c0.3,0,0.6-0.1,0.9,0.2c0,0.7,0,1.3,0,2c-5.8,0-11.6,0-17.5,0C62.8,55.4,62.6,55.3,62.4,55.3z"/>
	<path class="st4" d="M58.3,45.3c-1.2,0-2.3,0-3.5,0c-0.4,0-0.5-0.1-0.5-0.5c0-0.4,0-0.8,0-1.2c0-0.3-0.1-0.4-0.4-0.4
		c-0.4,0-0.8,0-1.3,0c-0.3,0-0.4-0.1-0.4-0.4c0-0.4,0-0.8,0-1.2c0-0.4-0.1-0.5-0.5-0.5c-0.5,0-1,0-1.5,0c0-1.3,0-2.7,0-4
		c0.6,0,1.1,0,1.7,0c0.3,0,0.4-0.1,0.4-0.4c0-1.2,0-2.4,0-3.7c0.6,0,1.1,0,1.7,0c0.3,0,0.4-0.1,0.4-0.4c0-1.2,0-2.4,0-3.7
		c0.7,0,1.3,0,2,0c0.4-0.3,0.8-0.1,1.2-0.1c0.6,0,0.6,0,0.6-0.6c0-0.2,0-0.4,0-0.7c0-0.6,0.1-0.7,0.8-0.7c0.2,0,0.4,0,0.6,0
		c0.6,0,0.6,0,0.6-0.7c0-0.3,0-0.5,0-0.8c0-0.3,0.2-0.5,0.5-0.5c0.3,0,0.7,0,1,0c0.3,0,0.5-0.2,0.5-0.5c0-0.3,0-0.7,0-1
		c0-0.2,0.1-0.5,0.3-0.5c0.6-0.1,1.2-0.2,1.8,0.1c3.3,0,6.7,0,10,0c0.2-0.2,0.4-0.2,0.7-0.2c1.6,0,3.1,0,4.7,0c0.2,0,0.5,0,0.7,0.2
		c0,0.6,0,1.1,0,1.7c0,0.2,0.1,0.3,0.3,0.3c0.6,0,1.1,0,1.7,0c0,2,0,4,0,6c-0.4,0.3-0.8,0.1-1.2,0.2c-0.3,0-0.6,0-0.8,0
		c-1.1,0-2.1,0-3.2,0c-0.7,0-0.7,0-0.7,0.7c0,0.8,0,1.6,0,2.4c0,0.6,0,0.6,0.6,0.6c1.1,0,2.2,0,3.3,0c0.4,0,0.9,0,1.3,0
		c0.4,0,0.6-0.1,0.6-0.6c0-0.9,0-1.7,0-2.6c0-0.2,0-0.5,0.2-0.7c0.7,0,1.3,0,2,0c0,2,0,4,0,6c0,0,0,0-0.1,0.1
		c-0.3,0.1-0.5,0.1-0.8,0.1c-2.1,0-4.2,0-6.3,0c-0.7,0-0.7,0-0.7,0.7c0,1,0,1,1,1c0.1,0,0.3,0,0.4,0c0.5,0,0.6,0.1,0.6,0.7
		c0,1,0,2,0,3.1c0,0.2,0,0.3-0.1,0.5c-0.2,0.1-0.4,0.1-0.6,0.1c-1,0-1.9,0-2.9,0c-0.6,0-0.7-0.1-0.8-0.8c0-0.2,0-0.5,0-0.7
		c0-0.4-0.2-0.5-0.5-0.5c-0.9,0-1.7,0-2.6,0c-0.7,0-0.8-0.1-0.9-0.8c0-1.3,0.1-1.2-1.2-1.2c-2.6,0-5.1,0-7.7,0c-0.8,0-0.8,0-0.8,0.8
		c0,1.2,0,1.2-1.2,1.2c-0.8,0-0.8,0-0.8,0.8c0,0.8,0,1.6,0,2.4C58.5,44.9,58.5,45.1,58.3,45.3L58.3,45.3z"/>
	<path class="st5" d="M64.4,23.2c-0.5,0-1,0-1.6,0c-0.4,0-0.5,0.1-0.5,0.5c0,0.4,0,0.8,0,1.2c0,0.3-0.1,0.4-0.4,0.4
		c-0.4,0-0.8,0-1.3,0c-0.3,0-0.4,0.1-0.4,0.4c0,0.4,0,0.8,0,1.2c0,0.3-0.1,0.5-0.4,0.5c-0.4,0-0.8,0-1.2,0c-0.3,0-0.4,0.1-0.4,0.4
		c0,0.4,0,0.8,0,1.2c0,0.3-0.1,0.5-0.4,0.4c-0.5,0-1.1,0-1.6,0c0-2,0-4,0-6c0.6,0,1.1,0,1.7,0c0.3,0,0.4-0.1,0.4-0.4
		c0-1.2,0-2.4,0-3.7c1.3,0,2.7,0,4,0c0,0.6,0,1.1,0,1.7c0,0.2,0.1,0.3,0.3,0.3c0.6,0,1.1,0,1.7,0C64.4,21.9,64.4,22.6,64.4,23.2z"/>
	<path class="st5" d="M80.4,23.2c-2,0-4,0-6,0c0-0.7,0-1.3,0-2c0.6,0,1.1,0,1.7,0c0.2,0,0.3-0.1,0.3-0.3c0-0.6,0-1.1,0-1.7
		c0.7,0,1.3,0,2,0c0,0.6,0,1.1,0,1.7c0,0.2,0.1,0.3,0.3,0.3c0.6,0,1.1,0,1.7,0C80.4,21.9,80.4,22.6,80.4,23.2z"/>
	<path class="st5" d="M58.4,45.3c0-1.2,0-2.4,0-3.7c0-0.3,0.1-0.4,0.4-0.4c0.4,0,0.8,0,1.3,0c0.3,0,0.4-0.1,0.4-0.4
		c0-0.4,0-0.8,0-1.2c0-0.4,0.1-0.5,0.5-0.5c1.5,0,2.9,0,4.4,0c1.6,0,3.1,0,4.7,0c0.4,0,0.5,0.1,0.5,0.5c0,0.3,0,0.7,0,1.1
		c0,0.4,0.1,0.5,0.5,0.5c1,0,2,0,3.1,0c0.4,0,0.5,0.1,0.5,0.5c0,0,0,0,0,0.1c0,0.5-0.2,1.1,0.1,1.4c0.3,0.3,0.9,0.1,1.4,0.1
		c0.8,0,1.7,0,2.5,0c0.6-0.3,1.2-0.1,1.8-0.1c0.2,0,0.3,0.1,0.3,0.3c0,0.6,0.2,1.2-0.1,1.8c-0.2,0.2-0.5,0.2-0.8,0.2
		c-2.8,0-5.5,0-8.3,0c-0.8,0-0.8,0-0.8,0.8c0,0.9,0,0.9,0.9,0.9c2.7,0,5.4,0,8.1,0c0.7,0,0.7,0,0.8-0.8c0-0.4-0.1-0.7,0.1-1.1
		c0.4-0.3,0.8-0.2,1.2-0.2c0.6,0,0.7,0,0.7-0.6c0-0.3,0-0.5,0-0.8c0-0.4,0.2-0.5,0.6-0.6c0.2,0,0.5,0,0.7,0c0.7,0,0.7,0,0.7-0.7
		c0-0.8,0-1.7,0-2.5c0-0.2,0-0.5,0.1-0.7c0.7-0.2,1.3-0.2,2,0c0,2.4,0,4.8,0,7.2c0,0.3,0,0.6,0,0.8c-0.6,0-1.1,0-1.7,0
		c-0.3,0-0.4,0.1-0.4,0.4c0,0.5,0,1.1,0,1.7c-0.2,0.2-0.5,0.1-0.7,0.2c-1.3,0-1.1-0.1-1.1,1.2c0,0.2,0,0.5-0.1,0.7l0,0
		c-0.4,0.3-0.8,0.1-1.2,0.1c-0.6,0-0.6,0-0.7,0.7c0,0.4,0.1,0.8-0.1,1.2c0,0,0,0,0,0c-5.1,0-10.3,0-15.4,0c-0.5,0-0.7-0.1-0.6-0.6
		c0-0.4,0.2-1-0.1-1.3c-0.3-0.3-0.8-0.1-1.3-0.1c-0.6,0-0.6,0-0.6-0.7c0-1,0-2,0-3c0-0.3-0.1-0.4-0.4-0.4c-0.4,0-0.8,0-1.2,0
		c-0.3,0-0.5-0.1-0.5-0.4c0-0.4,0-0.8,0-1.2c0-0.3-0.1-0.4-0.4-0.4C59.4,45.3,58.9,45.3,58.4,45.3z"/>
	<path class="st6" d="M86.5,39.3c-0.7,0-1.3,0-2,0c-0.3-0.7-0.3-1.3,0-2c0,0,0,0,0,0c0.7,0,1.3,0,2,0C86.5,38,86.5,38.6,86.5,39.3z"
		/>
	<path class="st3" d="M82.5,51.4c0-0.5,0-1,0-1.6c0-0.4,0.1-0.5,0.5-0.5c0.5,0,1,0,1.5,0c0,0.7,0,1.3,0,2
		C83.8,51.4,83.1,51.4,82.5,51.4z"/>
	<path class="st3" d="M80.5,53.4c0-0.5,0-1.1,0-1.6c0-0.3,0.1-0.4,0.4-0.4c0.5,0,1.1,0,1.6,0c0,0.7,0,1.3,0,2
		C81.8,53.4,81.1,53.4,80.5,53.4z"/>
	<path d="M84.5,37.3c0,0.7,0,1.3,0,2c0,1.2,0,2.4,0,3.6c0,0.3-0.1,0.4-0.4,0.4c-0.4,0-0.9,0-1.3,0c-0.2,0-0.3,0.1-0.3,0.3
		c0,0.4,0,0.9,0,1.3c0,0.3-0.1,0.4-0.4,0.4c-0.5,0-1.1,0-1.6,0l0,0c0-0.5,0-1.1,0-1.6c0-0.3-0.1-0.4-0.4-0.4c-0.5,0-1.1,0-1.6,0
		c0-1.2,0-2.4,0-3.6c0-0.3-0.1-0.4-0.4-0.4c-0.4,0-0.7,0-1.1,0c-0.5,0.1-0.6-0.1-0.5-0.6c0-0.5-0.1-1.1,0.1-1.4
		c0.3-0.3,0.9-0.1,1.4-0.1C80.1,37.3,82.3,37.3,84.5,37.3z"/>
	<path d="M68.4,37.3c-1.2,0-2.5,0-3.7,0c-0.2,0-0.3-0.1-0.3-0.3c0-1.1,0-2.3,0-3.4c0-0.2,0.1-0.3,0.3-0.3c1.2,0,2.5,0,3.7,0
		c0.1,0.1,0.2,0.3,0.2,0.5c0,1,0,2,0,3C68.6,36.9,68.5,37.1,68.4,37.3z"/>
	<path d="M80.4,35.3c-1.2,0-2.5,0-3.7,0c-0.2,0-0.3-0.1-0.3-0.3c0-1.1,0-2.3,0-3.4c0-0.2,0.1-0.3,0.3-0.3c1.2,0,2.5,0,3.7,0
		c0.1,0.1,0.2,0.3,0.2,0.5c0,1,0,2,0,3C80.6,34.9,80.6,35.1,80.4,35.3z"/>
	<path class="st7" d="M68.4,37.3c0-1.3,0-2.7,0-4c0.6,0,1.1,0,1.7,0c0.2,0,0.4,0.1,0.4,0.3c0,1.1,0,2.2,0,3.4c0,0.3-0.1,0.3-0.4,0.3
		C69.5,37.3,69,37.3,68.4,37.3z"/>
	<path class="st7" d="M80.4,35.3c0-1.3,0-2.7,0-4c0.7,0,1.3,0,2,0c0,0,0,0,0,0c0,1.2,0,2.4,0,3.6c0,0.3-0.1,0.4-0.4,0.4
		C81.5,35.3,81,35.3,80.4,35.3z"/>
	<path d="M80.4,45.3c0,0.6,0,1.1,0,1.7c0,0.2-0.1,0.3-0.3,0.3c-3.1,0-6.3,0-9.4,0c-0.2,0-0.3-0.1-0.3-0.3c0-0.4,0-0.9,0-1.3
		c0-0.3,0.1-0.4,0.4-0.4C74,45.3,77.2,45.3,80.4,45.3C80.5,45.3,80.4,45.3,80.4,45.3z"/>
</g>
<g>
	<path d="M21.2,97.5c0,1,0,2,0,3c0,0.4,0.1,0.6,0.6,0.6c0.1,0,0.3,0,0.4,0c14.8,0,29.6,0,44.4,0c0.8,0,1.1-0.2,1-1
		c-0.1-0.9,0-1.7,0-2.6c0,0-0.1-0.1-0.1-0.1c-0.3-0.1-0.6-0.2-0.9-0.2c-4.4,0-8.9,0-13.3,0c-1.7-0.1-3.4,0-5.2,0
		c-8.4,0-16.8,0-25.2,0c-0.5,0-1.1-0.1-1.6,0.2C21.3,97.4,21.2,97.4,21.2,97.5z"/>
	<path d="M74.8,86.8c0.9,0,1.8,0,2.8,0c0.7,0,0.8-0.2,0.8-0.8c0-6.1,0-12.3,0-18.4c0-0.7,0.3-1.7-0.2-2.1c-0.4-0.4-1.4-0.1-2.1-0.1
		c-0.4,0-0.9,0-1.3,0c0,0-0.1,0.1-0.1,0.1c-0.2,0.4-0.2,0.8-0.2,1.2c0,1.9,0,3.9,0,5.8c0,4.4,0,8.8,0,13.3c0,0.3,0,0.6,0.2,0.9
		C74.7,86.7,74.7,86.7,74.8,86.8z"/>
	<path d="M49.8,36.8c-6,0-11.9,0-17.9,0c0,0-0.1,0.1-0.1,0.1c-0.2,1.2-0.4,2.4,0.1,3.5c0.4,0.2,0.9,0.2,1.3,0.2c5.1,0,10.1,0,15.2,0
		c0.4,0,0.9,0,1.3-0.2c0.6-1.2,0.3-2.3,0.2-3.5C49.8,36.8,49.8,36.8,49.8,36.8z"/>
	<path d="M10.5,65.3c-1,0-2,0-3,0c-0.4,0-0.6,0.1-0.6,0.6c0,5.6,0,11.2,0,16.8c0,0.4,0.1,0.6,0.6,0.5c1,0,2,0,3,0
		c0,0,0.1-0.1,0.1-0.1c0.1-0.3,0.2-0.6,0.2-0.9c0-4.4,0-8.8,0-13.2c0-1.2,0.2-2.4-0.1-3.5C10.6,65.4,10.5,65.4,10.5,65.3z"/>
	<path d="M67.6,51c0-3.3,0-6.7,0-10c0-0.6-0.2-0.8-0.7-0.7c-0.9,0.1-1.9,0-2.9,0c0,0-0.1,0.1-0.1,0.1c-0.2,0.3-0.2,0.7-0.2,1
		c0,2.8,0,5.6,0,8.4c0,0.4,0,0.8,0.2,1.1c1.2,0.5,2.3,0.3,3.5,0.1C67.5,51.1,67.6,51.1,67.6,51z"/>
	<path d="M17.6,43.9c-1,0-1.9,0-2.9,0c-0.6,0-0.7,0.2-0.7,0.7c0,3.3,0,6.7,0,10c0,0,0.1,0.1,0.1,0.1c1.1,0.2,2.3,0.2,3.4,0
		c0.1-0.1,0.2-0.1,0.2-0.3c0.1-0.3,0.1-0.7,0.1-1.1c0-2.8,0-5.5,0-8.3c0-0.4,0-0.8-0.2-1.1C17.7,44,17.7,43.9,17.6,43.9z"/>
	<path d="M14.1,54.6c-1,0-1.9,0-2.9,0c-0.6,0-0.7,0.2-0.7,0.7c0,3.3,0,6.7,0,10c0,0,0,0,0,0c1.2,0.5,2.4,0.4,3.6,0
		c0.3-0.4,0.3-0.8,0.3-1.3c0-2.7,0-5.5,0-8.2C14.3,55.4,14.4,55,14.1,54.6L14.1,54.6z"/>
	<path d="M60.5,33.2c0-1,0-2,0-3c0-0.4-0.1-0.6-0.5-0.6c-2,0-4,0-6.1,0c-0.4,0-0.6,0.1-0.5,0.6c0,1,0,2,0,3c0,0,0.1,0.1,0.1,0.1
		c1.1,0.3,2.2,0.1,3.3,0.1c1.2,0,2.4,0.2,3.5-0.1C60.4,33.3,60.4,33.2,60.5,33.2z"/>
	<path d="M64,40.3c0-2.2,0-4.3,0-6.5c0-0.5-0.1-0.7-0.6-0.6c-1,0-2,0-2.9,0c0,0,0,0,0,0c-0.3,0.3-0.3,0.6-0.3,1c0,1.7,0,3.4,0,5.2
		c0,1,0.2,1.3,1.3,1.3C62.3,40.6,63.2,40.8,64,40.3L64,40.3z"/>
	<path d="M21.2,36.8c-1,0-2,0-2.9,0c-0.5,0-0.7,0.1-0.7,0.6c0,2.2,0,4.3,0,6.5l0,0c1.1,0.5,2.2,0.3,3.3,0.2c0.5-0.1,0.5-0.5,0.5-0.9
		c0-0.9,0-1.8,0-2.7c0-1.2,0.2-2.4-0.1-3.5C21.3,36.8,21.2,36.8,21.2,36.8z"/>
	<path d="M71.2,58.2c0-2.2,0-4.3,0-6.5c0-0.5-0.1-0.7-0.6-0.6c-1,0-2,0-2.9,0c0,0,0,0,0,0c-0.3,0.3-0.3,0.7-0.3,1.1c0,1.7,0,3.3,0,5
		c0,1.2,0.2,1.4,1.3,1.4c0.8,0,1.6,0.1,2.4-0.1C71.1,58.3,71.1,58.2,71.2,58.2z"/>
	<path d="M10.5,83.2c0,2.2,0,4.3,0,6.5c0,0.5,0.1,0.7,0.7,0.7c1-0.1,1.9,0,2.9,0c0,0,0.1-0.1,0.1-0.1c0.3-1.2,0.1-2.3,0.1-3.5
		c0.1-0.9,0-1.8,0-2.7c0-0.7-0.3-1.1-1.1-1.1C12.3,83,11.3,82.6,10.5,83.2L10.5,83.2z"/>
	<path d="M71.2,93.9c1,0,2,0,2.9,0c0.5,0,0.7-0.1,0.6-0.6c0-2.2,0-4.3,0-6.5c0,0,0,0,0,0c-1.1-0.5-2.2-0.3-3.3-0.2
		c-0.3,0-0.5,0.3-0.5,0.6c0,2.2-0.2,4.4,0.1,6.5C71.1,93.8,71.1,93.9,71.2,93.9z"/>
	<path d="M74.8,65.3c0-2.2,0-4.3,0-6.5c0-0.5-0.1-0.7-0.6-0.6c-1,0-2,0-2.9,0l0,0c-0.3,0.3-0.3,0.6-0.3,1c0,1.7,0,3.4,0,5.2
		c0,1,0.2,1.3,1.3,1.3C73,65.6,74,65.8,74.8,65.3L74.8,65.3z"/>
	<path class="st1" d="M28.3,33.2c0-1,0-2,0-3c0-0.4-0.1-0.6-0.5-0.6c0,0-0.1,0-0.1,0c-0.9,0-2.2-0.3-2.8,0.2
		c-0.6,0.5-0.1,1.8-0.2,2.7c0,0.2,0,0.5,0,0.7c0,0,0.1,0.1,0.1,0.1c1.1,0.2,2.2,0.2,3.3,0C28.2,33.3,28.3,33.2,28.3,33.2z"/>
	<path class="st1" d="M53.3,33.2c-1,0-2,0-3,0c-0.5,0-0.6,0.1-0.6,0.6c0,1,0,2,0,3c0,0,0,0,0,0c1.1,0.5,2.2,0.3,3.3,0.2
		c0.3,0,0.4-0.2,0.5-0.5C53.6,35.4,53.9,34.2,53.3,33.2L53.3,33.2z"/>
	<path class="st1" d="M31.9,36.8c0-1,0-2,0-3c0-0.4-0.1-0.6-0.6-0.6c-1,0-2,0-3,0l0,0c-0.5,1.1-0.3,2.2-0.2,3.3
		c0,0.3,0.2,0.5,0.5,0.5C29.7,37,30.8,37.3,31.9,36.8L31.9,36.8z"/>
	<path class="st1" d="M24.8,33.2c-1,0-2,0-3,0c-0.5,0-0.6,0.1-0.6,0.6c0,1,0,2,0,3c0,0,0,0,0,0c1.1,0.5,2.2,0.3,3.3,0.2
		c0.3,0,0.4-0.2,0.5-0.5C25,35.4,25.3,34.2,24.8,33.2L24.8,33.2z"/>
	<path class="st1" d="M14.1,90.3c0,1,0,2,0,3c0,0.5,0.1,0.6,0.6,0.6c1,0,2,0,3,0c0,0,0.1-0.1,0.1-0.1c0.2-1.1,0.2-2.2,0-3.4
		c-0.1-0.1-0.1-0.2-0.2-0.2C16.3,90.1,15.2,89.8,14.1,90.3L14.1,90.3z"/>
	<path class="st1" d="M67.6,97.5c1,0,2,0,3,0c0.4,0,0.6-0.1,0.6-0.6c0-1,0-2,0-3c0,0,0,0,0,0c-1.1-0.5-2.2-0.3-3.3-0.2
		c-0.2,0-0.4,0.2-0.5,0.5C67.3,95.3,67.1,96.4,67.6,97.5L67.6,97.5z"/>
	<path class="st1" d="M17.6,93.9c0,1,0,2,0,3c0,0.5,0.1,0.6,0.6,0.6c1,0,2,0,3,0c0,0,0,0,0,0c0.5-1.1,0.3-2.3,0.2-3.5
		c-0.1-0.1-0.1-0.2-0.2-0.2C19.9,93.6,18.8,93.4,17.6,93.9L17.6,93.9z"/>
	<path class="st2" d="M67.6,97.5c0-1,0-2,0-3c0-0.4,0.1-0.6,0.6-0.6c1,0,2,0,3,0c0-2.1,0-4.3,0-6.4c0-0.6,0.1-0.8,0.7-0.8
		c0.9,0,1.9,0,2.8,0c0-4.8,0-9.5,0-14.3c-1.1-0.5-2.1-0.3-3.2-0.2c-0.3,0-0.5,0.3-0.5,0.6c-0.1,0.4-0.1,0.7-0.1,1.1
		c0,1.9,0.1,1.8-1.8,1.8c-0.2,0-0.5,0-0.7,0c-0.7,0-1,0.4-1,1c0,0.5,0,0.9,0,1.4c0,1-0.1,1.1-1.1,1.1c-1.5,0-3,0-4.5,0
		c-0.4,0-0.9,0-1.3,0.2c-0.3,0.4-0.3,0.8-0.3,1.3c0,1.5,0,3.1,0,4.6c0,0.7-0.3,1-1,1c-0.4,0-0.8,0-1.2,0c-1.1,0-1.3,0.2-1.3,1.3
		c0,1.5,0,3,0,4.5c0,1.2-0.1,1.3-1.2,1.3c-2.3,0-2.4,0-2.3,2.4c0,0.5-0.1,1,0.3,1.4C58.1,97.4,62.9,97.5,67.6,97.5z"/>
	<path class="st3" d="M53.3,97.4c0-0.9,0.1-1.8,0-2.7c-0.1-0.7,0.2-0.9,0.9-0.9c0.6,0,1.2,0,1.8,0c0.7,0.1,0.9-0.1,0.9-0.9
		c-0.1-1.8,0-3.6,0-5.4c0-0.7,0.2-0.9,0.8-0.9c0.7,0.1,1.4,0,2,0c0.6,0,0.7-0.2,0.7-0.7c0-2.1,0-4.3,0-6.4c0,0-0.1-0.1-0.1-0.1
		c-1-0.3-2-0.2-3-0.1c-0.5,0-0.7,0.4-0.7,0.9c-0.1,0.6,0,1.2,0,1.9c0,0.5-0.2,0.8-0.8,0.8c-0.5,0-1.1,0-1.6,0
		c-0.9,0.1-1.2,0.3-1.2,1.2c0,1.6,0,3.2,0,4.8c0,1-0.1,1.1-1.1,1.1c-0.5,0-1,0-1.4,0c-0.7,0-1,0.4-1,1c0,0.5,0,1,0,1.5
		c0,0.7-0.3,1.1-1,1c-0.3,0-0.6,0-0.9,0c-8.3,0-16.6,0-24.9,0c-0.5,0-1.1-0.1-1.5,0.3c0,1.2,0,2.4,0,3.6c10.4,0,20.7,0,31.1,0
		C52.6,97.5,53,97.4,53.3,97.4z"/>
	<path class="st4" d="M60.5,79.6c2.1,0,4.2,0,6.2,0c0.7,0,0.9-0.2,0.9-0.9c-0.1-0.7,0-1.4,0-2.1c0-0.5,0.2-0.6,0.6-0.6
		c0.7,0,1.5,0,2.2,0c0.5,0,0.8-0.1,0.7-0.7c0-0.7,0-1.4,0-2.1c-0.1-0.7,0.2-0.9,0.9-0.8c0.9,0,1.8,0,2.7,0c0-2.4,0-4.8,0-7.1
		c-1,0-2,0-2.9,0c-0.5,0-0.7-0.2-0.6-0.7c0-2.2,0-4.3,0-6.5c-1,0-2,0-2.9,0c-0.5,0-0.7-0.2-0.6-0.7c0-2.2,0-4.3,0-6.5
		c-1.2,0-2.4,0-3.6,0c-0.7-0.4-1.4-0.2-2.2-0.3c-1,0-1.1-0.1-1.1-1.1c0-0.4,0-0.8,0-1.2c0-1.1-0.2-1.3-1.3-1.3c-0.4,0-0.7,0-1.1,0
		c-1.1,0-1.1-0.1-1.1-1.2c0-0.5,0-1,0-1.4c0-0.6-0.4-0.9-1-0.9c-0.6,0-1.2,0-1.8,0c-0.6,0-0.8-0.3-0.8-0.8c0-0.6,0-1.2,0-1.8
		c0-0.4-0.1-0.8-0.6-0.9c-1.1-0.1-2.2-0.3-3.2,0.2c-5.9,0-11.9,0-17.8,0C31.6,40,31.1,40,30.7,40c-2.8,0-5.6,0-8.3,0
		c-0.4,0-0.8,0-1.2,0.3c0,1,0,2,0,3c0,0.4-0.1,0.6-0.6,0.6c-1,0-2,0-3,0c0,3.6,0,7.2,0,10.7c0.6,0.5,1.4,0.2,2.1,0.3
		c0.5,0,1,0,1.5,0c1.9,0,3.7,0,5.6,0c1.2,0,1.3,0,1.3,1.3c0,1.4,0,2.8,0,4.2c0,1-0.1,1.1-1.1,1.1c-1.9,0-3.9,0-5.8,0
		c-0.8,0-1.5,0-2.3,0c-0.7,0-1-0.3-1-1c0-1.5,0-3.1,0-4.6c0-0.4,0-0.9-0.3-1.3c-1.2,0-2.4,0-3.6,0c0,3.6,0,7.2,0,10.7
		c0,0,0.1,0.1,0.1,0.1c0.4,0.2,0.9,0.2,1.4,0.2c3.7,0,7.4,0,11.2,0c1.3,0,1.3,0,1.3,1.3c0,1.7,0,1.7-1.7,1.7c-0.2,0-0.5,0-0.7,0
		c-0.9,0.1-1.1,0.3-1.1,1.2c0,1.8,0,3.6,0,5.4c0,0.3,0,0.6,0.2,0.8c0.3,0.2,0.7,0.2,1,0.2c1.7,0,3.4,0,5.1,0c1.1,0,1.3-0.2,1.4-1.4
		c0-0.4,0-0.8,0-1.2c0-0.7,0.3-0.9,1-0.9c1.5,0,3.1,0,4.6,0c1.3,0,1.5-0.2,1.5-1.5c0-2.3-0.2-2.1,2.1-2.1c4.6,0,9.2,0,13.7,0
		c1.4,0,1.4,0,1.4,1.4c0,2.2,0,2.2,2.2,2.2c1.4,0,1.4,0,1.4,1.4c0,1.4,0,2.9,0,4.3C60.2,78.8,60.2,79.2,60.5,79.6L60.5,79.6z"/>
	<path class="st5" d="M49.7,40.3c0.9,0,1.8,0.1,2.8,0c0.7,0,0.9,0.2,0.8,0.9c0,0.7,0,1.4,0,2c0,0.5,0.1,0.7,0.7,0.7
		c0.7,0,1.5,0,2.2,0c0.6,0,0.7,0.2,0.7,0.7c0,0.7,0,1.4,0,2c0,0.6,0.1,0.9,0.8,0.8c0.7,0,1.4,0,2.1,0c0.5,0,0.7,0.2,0.7,0.7
		c0,0.7,0,1.4,0,2.1c0,0.6,0.1,0.8,0.7,0.8c0.9,0,1.9,0,2.8,0c0-3.6,0-7.1,0-10.7c-1,0-2,0-2.9,0c-0.5,0-0.7-0.1-0.6-0.7
		c0-2.2,0-4.3,0-6.5c-2.4,0-4.8,0-7.2,0c0,1,0,2,0,3c0,0.4-0.1,0.6-0.6,0.6c-1,0-2,0-3,0C49.7,37.9,49.7,39.1,49.7,40.3z"/>
	<path class="st5" d="M21.2,40.3c3.6,0,7.1,0,10.7,0c0-1.2,0-2.4,0-3.6c-1,0-2,0-3,0c-0.4,0-0.6-0.1-0.6-0.6c0-1,0-2,0-3
		c-1.2,0-2.4,0-3.6,0c0,1,0,2,0,3c0,0.4-0.1,0.6-0.6,0.6c-1,0-2,0-3,0C21.2,37.9,21.2,39.1,21.2,40.3z"/>
	<path class="st5" d="M60.4,79.6c0-2.2,0-4.3,0-6.5c0-0.5-0.2-0.7-0.7-0.6c-0.7,0-1.5,0-2.2,0c-0.5,0-0.7-0.2-0.7-0.7
		c0-0.7,0-1.4,0-2.1c0.1-0.7-0.2-0.9-0.8-0.9c-2.6,0-5.2,0-7.8,0c-2.8,0-5.6,0-8.4,0c-0.6,0-0.8,0.2-0.8,0.8c0,0.6,0,1.3,0,1.9
		c0.1,0.7-0.1,0.9-0.9,0.9c-1.8-0.1-3.6,0-5.4,0c-0.7,0-0.9,0.2-0.8,0.9c0,0,0,0.1,0,0.1c-0.1,0.8,0.4,2-0.2,2.5
		c-0.6,0.5-1.6,0.1-2.5,0.2c-1.5,0-3,0-4.5,0c-1-0.5-2.1-0.2-3.2-0.2c-0.3,0-0.5,0.2-0.5,0.5c-0.1,1.1-0.3,2.2,0.2,3.2
		c0.4,0.4,0.9,0.3,1.4,0.3c4.9,0,9.8,0,14.7,0c1.4,0,1.4,0,1.4,1.4c0,1.6,0,1.6-1.6,1.6c-4.8,0-9.6,0-14.4,0c-1.3,0-1.3,0-1.4-1.3
		c0-0.6,0.2-1.3-0.2-1.9c-0.7-0.5-1.4-0.3-2.1-0.3c-1.1,0-1.2-0.1-1.2-1.2c0-0.5,0-0.9,0-1.4c0-0.6-0.3-1-1-1c-0.4,0-0.9,0-1.3,0
		c-1.2,0-1.2,0-1.2-1.3c0-1.5,0-3,0-4.4c0-0.4,0-0.8-0.2-1.2c-1.2-0.4-2.4-0.4-3.6,0c0,4.3,0,8.5,0,12.8c0,0.5,0,1,0,1.5
		c1,0,2,0,2.9,0c0.5,0,0.7,0.1,0.7,0.6c0,1,0,2,0,2.9c0.4,0.3,0.8,0.3,1.3,0.3c2.3,0,2-0.2,2,2.1c0,0.4,0,0.9,0.3,1.3l0,0
		c0.7,0.5,1.4,0.2,2.2,0.3c1.1,0,1.1,0.1,1.2,1.2c0,0.7-0.2,1.5,0.3,2.2c0,0,0,0,0,0c9.2,0,18.3,0,27.5,0c0.9,0,1.2-0.2,1.1-1.1
		c-0.1-0.8-0.4-1.8,0.2-2.3c0.5-0.5,1.5-0.1,2.2-0.1c1.1,0,1.1,0,1.1-1.2c0-1.8,0-3.5,0-5.3c0-0.5,0.2-0.7,0.7-0.7
		c0.7,0,1.4,0,2.1,0c0.6,0,0.9-0.1,0.8-0.8c0-0.7,0-1.4,0-2.1c0-0.6,0.2-0.8,0.8-0.7C58.6,79.6,59.5,79.6,60.4,79.6z"/>
	<path class="st6" d="M10.5,68.9c1.2,0,2.3,0,3.5,0c0.5-1.2,0.5-2.4,0-3.6c0,0,0,0,0,0c-1.2,0-2.4,0-3.6,0
		C10.5,66.5,10.5,67.7,10.5,68.9z"/>
	<path class="st3" d="M17.6,90.3c0-0.9,0-1.8,0-2.8c0-0.7-0.2-0.9-0.9-0.8c-0.9,0-1.8,0-2.7,0c0,1.2,0,2.4,0,3.6
		C15.2,90.3,16.4,90.3,17.6,90.3z"/>
	<path class="st3" d="M21.2,93.9c0-1,0-2,0-2.9c0-0.5-0.2-0.7-0.7-0.7c-1,0-2,0-2.9,0c0,1.2,0,2.4,0,3.6
		C18.8,93.9,20,93.9,21.2,93.9z"/>
	<path d="M14,65.3c0,1.2,0,2.4,0,3.6c0,2.1,0,4.3,0,6.4c0,0.6,0.1,0.8,0.7,0.8c0.8-0.1,1.5,0,2.3,0c0.4,0,0.6,0.1,0.6,0.6
		c0,0.8,0,1.5,0,2.3c0,0.6,0.2,0.8,0.8,0.7c0.9,0,1.9,0,2.8,0l0,0c0-1,0-2,0-2.9c0-0.5,0.1-0.7,0.6-0.7c1,0,2,0,2.9,0
		c0-2.1,0-4.3,0-6.4c0-0.5,0.1-0.8,0.7-0.7c0.7,0,1.3-0.1,2,0c0.8,0.1,1-0.2,0.9-1c-0.1-0.8,0.3-1.9-0.2-2.4
		c-0.5-0.6-1.6-0.2-2.5-0.2C21.8,65.3,17.9,65.3,14,65.3z"/>
	<path d="M42.6,65.3c2.2,0,4.4,0,6.6,0c0.4,0,0.6-0.1,0.6-0.6c0-2,0-4,0-6.1c0-0.4-0.2-0.6-0.6-0.6c-2.2,0-4.4,0-6.6,0
		c-0.3,0.3-0.3,0.6-0.3,0.9c0,1.8,0,3.5,0,5.3C42.3,64.7,42.4,65,42.6,65.3z"/>
	<path d="M21.2,61.7c2.2,0,4.4,0,6.6,0c0.4,0,0.6-0.1,0.6-0.6c0-2,0-4,0-6.1c0-0.4-0.2-0.6-0.6-0.6c-2.2,0-4.4,0-6.6,0
		c-0.3,0.3-0.3,0.6-0.3,0.9c0,1.8,0,3.5,0,5.3C20.9,61.1,20.9,61.5,21.2,61.7z"/>
	<path class="st7" d="M42.6,65.3c0-2.4,0-4.7,0-7.1c-1,0-2,0-2.9,0c-0.4,0-0.6,0.1-0.6,0.6c0,2,0,4,0,6c0,0.5,0.2,0.6,0.6,0.6
		C40.7,65.3,41.6,65.3,42.6,65.3z"/>
	<path class="st7" d="M21.2,61.7c0-2.4,0-4.7,0-7.1c-1.2,0-2.4,0-3.6,0c0,0,0,0,0,0c0,2.1,0,4.3,0,6.4c0,0.6,0.1,0.8,0.7,0.8
		C19.3,61.7,20.2,61.7,21.2,61.7z"/>
	<path d="M21.2,79.6c0,1,0,2,0,3c0,0.4,0.1,0.6,0.6,0.6c5.6,0,11.2,0,16.8,0c0.4,0,0.6-0.1,0.6-0.6c0-0.8-0.1-1.5,0-2.3
		c0-0.6-0.2-0.7-0.8-0.7C32.6,79.6,26.9,79.6,21.2,79.6C21.2,79.6,21.2,79.6,21.2,79.6z"/>
</g>
</svg>
